<svg xmlns="http://www.w3.org/2000/svg" version="1.1" xmlns:xlink="http://www.w3.org/1999/xlink" xmlns:svgjs="http://svgjs.dev/svgjs" width="1000" height="1000" viewBox="0 0 1000 1000"><rect width="1000" height="1000" fill="#ffffff"></rect><g transform="matrix(0.7,0,0,0.7,149.57576735892195,282.1265587044535)"><svg viewBox="0 0 396 247" data-background-color="#ffffff" preserveAspectRatio="xMidYMid meet" height="623" width="1000" xmlns="http://www.w3.org/2000/svg" xmlns:xlink="http://www.w3.org/1999/xlink"><defs></defs><g id="tight-bounds" transform="matrix(1,0,0,1,0.23999446552414838,-0.09999999999999432)"><svg viewBox="0 0 395.52 247.2" height="247.2" width="395.52"><g><svg></svg></g><g><svg viewBox="0 0 395.52 247.2" height="247.2" width="395.52"><g><path d="M272.114 67.843c0 2.634-0.1 5.226-0.3 7.777l-29.415 0c0.096-1.461 0.145-2.961 0.145-4.499 0-5.89-0.76-11.211-2.28-15.961-1.473-4.75-3.373-8.669-5.701-11.757-2.328-3.088-5.178-5.748-8.55-7.981-3.373-2.28-6.627-3.99-9.762-5.13-3.135-1.188-6.603-2.114-10.404-2.779-3.848-0.713-7.007-1.164-9.476-1.354-2.518-0.143-5.154-0.214-7.91-0.214h-49.807v49.675l-29.713 0v-75.612h90.779c4.18 0 7.957 0.119 11.329 0.357 3.373 0.238 7.696 0.831 12.968 1.781 5.273 0.998 9.952 2.328 14.038 3.99 4.038 1.71 8.289 4.275 12.754 7.696 4.465 3.42 8.171 7.458 11.116 12.113 2.945 4.608 5.392 10.522 7.339 17.743 1.9 7.173 2.85 15.225 2.85 24.155zM286.579 247.192h-33.062l-49.187-75.612h32.635zM138.654 247.192h-29.713l0-75.612h29.713z" fill="#000000" data-fill-palette-color="tertiary"></path></g><g transform="matrix(1,0,0,1,0,86.45935230618252)"><svg viewBox="0 0 395.52 74.28129538763493" height="74.28129538763493" width="395.52"><g><svg viewBox="0 0 395.52 74.28129538763493" height="74.28129538763493" width="395.52"><g><svg viewBox="0 0 395.52 74.28129538763493" height="74.28129538763493" width="395.52"><g><svg viewBox="0 0 395.52 74.28129538763493" height="74.28129538763493" width="395.52"><g><svg viewBox="0 0 395.52 74.28129538763493" height="74.28129538763493" width="395.52"><g><svg viewBox="0 0 395.52 74.28129538763493" height="74.28129538763493" width="395.52"><g transform="matrix(1,0,0,1,0,0)"><svg width="395.52" viewBox="7.079999923706055 -36.88999938964844 199.00999450683594 37.380001068115234" height="74.28129538763493" data-palette-color="#000000"><path d="M29.98-25.17L29.98-25.17Q29.98-23.44 29.57-21.88 29.15-20.31 28.27-18.9 27.39-17.48 25.84-16.44 24.29-15.41 22.22-14.92L22.22-14.92 32.01 0 27.37 0 17.97-14.45 11.25-14.45 11.25 0 7.08 0 7.08-34.69 19.82-34.69Q20.7-34.69 21.41-34.64 22.12-34.59 23.23-34.39 24.34-34.18 25.2-33.83 26.05-33.47 26.99-32.75 27.93-32.03 28.55-31.05 29.17-30.08 29.58-28.56 29.98-27.05 29.98-25.17ZM11.25-31.05L11.25-18.12 17.24-18.12Q18.48-18.12 19.43-18.2 20.39-18.29 21.67-18.66 22.95-19.04 23.79-19.71 24.63-20.39 25.23-21.67 25.83-22.95 25.83-24.71L25.83-24.71Q25.83-25.95 25.51-26.95 25.2-27.95 24.71-28.6 24.22-29.25 23.51-29.72 22.8-30.2 22.14-30.44 21.48-30.69 20.68-30.83 19.87-30.98 19.35-31.02 18.82-31.05 18.24-31.05L18.24-31.05 11.25-31.05ZM47.48-24.58L47.48-24.58Q50.17-24.58 52.04-23.96 53.9-23.34 54.92-22.14 55.93-20.95 56.37-19.48 56.81-18.02 56.81-16.11L56.81-16.11 56.81 0 53.98 0 53.05-2.2Q50.1 0.49 46.26 0.49L46.26 0.49Q42.84 0.49 40.48-1.57 38.11-3.64 38.11-6.4L38.11-6.4Q38.11-7.86 38.64-9.03 39.18-10.21 40.2-10.99 41.21-11.77 42.5-12.32 43.8-12.87 45.52-13.16 47.24-13.45 48.97-13.57 50.71-13.7 52.78-13.7L52.78-13.7 52.78-15.6Q52.78-16.43 52.72-17.04 52.66-17.65 52.32-18.51 51.98-19.36 51.39-19.91 50.8-20.46 49.63-20.86 48.46-21.26 46.85-21.26L46.85-21.26Q44.36-21.26 40.4-20.17L40.4-20.17 39.65-23.1Q43.65-24.58 47.48-24.58ZM52.78-5.13L52.78-10.67 51.29-10.67Q49.9-10.67 48.87-10.62 47.85-10.57 46.47-10.34 45.09-10.11 44.21-9.69 43.33-9.28 42.71-8.48 42.09-7.69 42.09-6.59L42.09-6.59Q42.09-5.05 43.64-3.86 45.19-2.66 47.34-2.66L47.34-2.66Q50.49-2.66 52.78-5.13L52.78-5.13ZM64.37-11.65L64.37-11.65Q64.37-14.77 65.25-17.26 66.13-19.75 67.67-21.34 69.21-22.92 71.27-23.77 73.33-24.61 75.73-24.61L75.73-24.61Q78.61-24.61 81.56-23.32L81.56-23.32 81.56-36.89 85.57-36.89 85.57 0 82.78 0 82.12-1.51Q78.73 0.49 75.04 0.49L75.04 0.49Q73.53 0.49 72.09 0.12 70.65-0.24 69.23-1.15 67.82-2.05 66.76-3.41 65.69-4.76 65.03-6.88 64.37-9.01 64.37-11.65ZM76.36-2.81L76.36-2.81Q79.02-2.81 81.56-4.17L81.56-4.17 81.56-20.29Q78.95-21.46 76.31-21.46L76.31-21.46Q75.19-21.46 74.14-21.22 73.09-20.97 71.99-20.34 70.89-19.7 70.1-18.7 69.31-17.7 68.79-16.05 68.28-14.4 68.28-12.28L68.28-12.28Q68.28-10.08 68.82-8.36 69.36-6.64 70.19-5.62 71.02-4.59 72.14-3.93 73.26-3.27 74.29-3.04 75.31-2.81 76.36-2.81ZM104.44 0L93.62-34.69 98.01-34.69 106.73-5.54 115.52-34.69 119.69-34.69 128.73-5.54 137.2-34.69 141.59-34.69 130.9 0 126.48 0 117.38-28.98 108.85 0 104.44 0ZM170.47 0L150.14 0 150.14-34.69 170.47-34.69 170.47-31.03 154.29-31.03 154.29-19.7 169.13-19.7 169.13-16.04 154.29-16.04 154.29-3.66 170.47-3.66 170.47 0ZM192.3-31.52L185.61-31.52 185.61-19.87Q186.07-19.9 187.22-19.91 188.37-19.92 189-19.93 189.64-19.95 190.78-20.03 191.93-20.12 192.63-20.23 193.32-20.34 194.31-20.57 195.3-20.8 195.92-21.11 196.55-21.41 197.24-21.89 197.94-22.36 198.33-22.95 198.72-23.54 198.97-24.35 199.23-25.17 199.23-26.15L199.23-26.15Q199.23-26.88 199.08-27.54 198.94-28.2 198.47-28.96 198.01-29.71 197.28-30.25 196.55-30.79 195.26-31.15 193.98-31.52 192.3-31.52L192.3-31.52ZM185.61-16.65L185.61-16.65 185.61-3.66 192.08-3.66Q192.96-3.66 193.55-3.67 194.15-3.69 195.28-3.82 196.4-3.96 197.19-4.19 197.99-4.42 198.96-4.9 199.94-5.37 200.54-6.03 201.13-6.69 201.55-7.73 201.97-8.76 201.97-10.08L201.97-10.08Q201.97-13.33 199.45-15.16 196.94-16.99 192.69-16.99L192.69-16.99Q192.22-16.99 185.61-16.65ZM181.46 0L181.46-34.69 193.69-34.69Q195.47-34.69 196.95-34.31 198.43-33.94 199.39-33.35 200.35-32.76 201.1-31.96 201.84-31.15 202.23-30.4 202.62-29.64 202.87-28.78 203.11-27.93 203.17-27.38 203.23-26.83 203.23-26.34L203.23-26.34Q203.23-24.22 201.79-22.11 200.35-20 198.74-19.38L198.74-19.38Q201.97-18.8 204.03-16.27 206.09-13.75 206.09-10.52L206.09-10.52Q206.09-9.77 205.96-8.94 205.82-8.11 205.43-7.06 205.04-6.01 204.43-5.05 203.82-4.1 202.77-3.16 201.72-2.22 200.37-1.54 199.01-0.85 197.05-0.43 195.08 0 192.74 0L192.74 0 181.46 0Z" opacity="1" transform="matrix(1,0,0,1,0,0)" fill="#000000" class="undefined-text-0" data-fill-palette-color="primary" id="text-0"></path></svg></g></svg></g></svg></g></svg></g></svg></g></svg></g></svg></g></svg></g></svg><rect width="395.52" height="247.2" fill="none" stroke="none" visibility="hidden"></rect></g></svg></g></svg>