<?xml version="1.0" encoding="utf-8"?>
<!-- Generator: Adobe Illustrator 27.5.0, SVG Export Plug-In . SVG Version: 6.00 Build 0)  -->
<svg version="1.1" id="Layer_1" xmlns="http://www.w3.org/2000/svg" xmlns:xlink="http://www.w3.org/1999/xlink" x="0px" y="0px"
	 viewBox="0 0 1000 1000" style="enable-background:new 0 0 1000 1000;" xml:space="preserve">
<g>
	<defs>
		<rect id="SVGID_1_" width="1000" height="1000"/>
	</defs>
	<clipPath id="SVGID_00000179624417171648817730000009611021484835556273_">
		<use xlink:href="#SVGID_1_"  style="overflow:visible;"/>
	</clipPath>
	<g style="clip-path:url(#SVGID_00000179624417171648817730000009611021484835556273_);">
		<g id="all_10">
			<g transform="translate(50,50) scale(0.1656) rotate(0)">
				<g id="shape_10_1">
					<path d="M41.72,50c0-4.573,3.707-8.28,8.28-8.28s8.28,3.708,8.28,8.28c0,4.573-3.707,8.28-8.28,8.28S41.72,54.573,41.72,50z
						 M42.548,50c0,4.116,3.336,7.452,7.452,7.452s7.452-3.336,7.452-7.452c0-4.116-3.336-7.452-7.452-7.452
						S42.548,45.884,42.548,50z"/>
				</g>
			</g>
			<g transform="translate(50,150) scale(0.23184) rotate(0)">
				<g id="shape_10_1_1_">
					<path d="M38.408,150c0-6.402,5.19-11.592,11.592-11.592S61.592,143.598,61.592,150c0,6.402-5.19,11.592-11.592,11.592
						S38.408,156.402,38.408,150z M39.567,150c0,5.762,4.671,10.433,10.433,10.433S60.433,155.762,60.433,150
						c0-5.762-4.671-10.433-10.433-10.433S39.567,144.238,39.567,150z"/>
				</g>
			</g>
			<g transform="translate(50,250) scale(0.29808) rotate(0)">
				<g id="shape_10_1_2_">
					<path d="M35.096,250c0-8.231,6.672-14.904,14.904-14.904S64.904,241.769,64.904,250c0,8.231-6.672,14.904-14.904,14.904
						S35.096,258.231,35.096,250z M36.586,250c0,7.408,6.005,13.414,13.414,13.414S63.414,257.408,63.414,250
						c0-7.408-6.005-13.414-13.414-13.414S36.586,242.592,36.586,250z"/>
				</g>
			</g>
			<g transform="translate(50,350) scale(0.36432) rotate(0)">
				<g id="shape_10_1_3_">
					<path d="M31.784,350c0-10.06,8.155-18.216,18.216-18.216S68.216,339.94,68.216,350c0,10.061-8.155,18.216-18.216,18.216
						S31.784,360.061,31.784,350z M33.605,350c0,9.054,7.34,16.395,16.395,16.395s16.395-7.34,16.395-16.395
						S59.054,333.605,50,333.605S33.605,340.946,33.605,350z"/>
				</g>
			</g>
			<g transform="translate(50,450) scale(0.43056) rotate(0)">
				<g id="shape_10_1_4_">
					<path d="M28.472,450c0-11.89,9.638-21.528,21.528-21.528S71.528,438.11,71.528,450c0,11.89-9.638,21.528-21.528,21.528
						S28.472,461.89,28.472,450z M30.625,450c0,10.7,8.674,19.375,19.375,19.375S69.375,460.7,69.375,450
						c0-10.7-8.674-19.375-19.375-19.375S30.625,439.3,30.625,450z"/>
				</g>
			</g>
			<g transform="translate(50,550) scale(0.4968) rotate(0)">
				<g id="shape_10_1_5_">
					<path d="M25.16,550c0-13.719,11.121-24.84,24.84-24.84c13.719,0,24.84,11.121,24.84,24.84c0,13.719-11.121,24.84-24.84,24.84
						C36.281,574.84,25.16,563.719,25.16,550z M27.644,550c0,12.347,10.009,22.356,22.356,22.356S72.356,562.347,72.356,550
						S62.347,527.644,50,527.644S27.644,537.653,27.644,550z"/>
				</g>
			</g>
			<g transform="translate(50,650) scale(0.56304) rotate(0)">
				<g id="shape_10_1_6_">
					<path d="M21.848,650c0-15.548,12.604-28.152,28.152-28.152S78.152,634.452,78.152,650S65.548,678.152,50,678.152
						S21.848,665.548,21.848,650z M24.663,650c0,13.993,11.344,25.337,25.337,25.337S75.337,663.993,75.337,650
						c0-13.993-11.344-25.337-25.337-25.337S24.663,636.007,24.663,650z"/>
				</g>
			</g>
			<g transform="translate(50,750) scale(0.62928) rotate(0)">
				<g id="shape_10_1_7_">
					<path d="M18.536,750c0-17.377,14.087-31.464,31.464-31.464S81.464,732.623,81.464,750S67.377,781.464,50,781.464
						S18.536,767.377,18.536,750z M21.683,750c0,15.64,12.678,28.317,28.317,28.317S78.317,765.64,78.317,750
						S65.639,721.683,50,721.683S21.683,734.36,21.683,750z"/>
				</g>
			</g>
			<g transform="translate(50,850) scale(0.69552) rotate(0)">
				<g id="shape_10_1_8_">
					<path d="M15.224,850c0-19.206,15.57-34.776,34.776-34.776S84.776,830.794,84.776,850S69.206,884.776,50,884.776
						S15.224,869.206,15.224,850z M18.702,850c0,17.285,14.013,31.299,31.298,31.299S81.298,867.285,81.298,850
						S67.286,818.701,50,818.701S18.702,832.715,18.702,850z"/>
				</g>
			</g>
			<g transform="translate(50,950) scale(0.76176) rotate(0)">
				<g id="shape_10_1_9_">
					<path d="M11.912,950c0-21.035,17.052-38.088,38.088-38.088S88.088,928.965,88.088,950S71.036,988.088,50,988.088
						S11.912,971.035,11.912,950z M15.721,950c0,18.932,15.348,34.279,34.279,34.279S84.279,968.932,84.279,950
						S68.932,915.721,50,915.721S15.721,931.068,15.721,950z"/>
				</g>
			</g>
			<g transform="translate(150,50) scale(0.1512) rotate(0)">
				<g id="shape_10_1_10_">
					<path d="M142.44,50c0-4.175,3.385-7.56,7.56-7.56s7.56,3.385,7.56,7.56c0,4.175-3.385,7.56-7.56,7.56S142.44,54.175,142.44,50z
						 M143.196,50c0,3.758,3.046,6.804,6.804,6.804s6.804-3.046,6.804-6.804c0-3.758-3.046-6.804-6.804-6.804
						S143.196,46.242,143.196,50z"/>
				</g>
			</g>
			<g transform="translate(150,150) scale(0.21168) rotate(0)">
				<g id="shape_10_1_11_">
					<path d="M139.416,150c0-5.845,4.739-10.584,10.584-10.584s10.584,4.739,10.584,10.584c0,5.845-4.739,10.584-10.584,10.584
						S139.416,155.845,139.416,150z M140.475,150c0,5.261,4.265,9.525,9.525,9.525s9.525-4.265,9.525-9.525
						c0-5.261-4.265-9.525-9.525-9.525S140.475,144.739,140.475,150z"/>
				</g>
			</g>
			<g transform="translate(150,250) scale(0.27216) rotate(0)">
				<g id="shape_10_1_12_">
					<path d="M136.392,250c0-7.516,6.092-13.608,13.608-13.608s13.608,6.092,13.608,13.608c0,7.516-6.092,13.608-13.608,13.608
						S136.392,257.516,136.392,250z M137.753,250c0,6.764,5.483,12.247,12.247,12.247s12.247-5.483,12.247-12.247
						c0-6.764-5.483-12.247-12.247-12.247S137.753,243.236,137.753,250z"/>
				</g>
			</g>
			<g transform="translate(150,350) scale(0.33264) rotate(0)">
				<g id="shape_10_1_13_">
					<path d="M133.368,350c0-9.185,7.446-16.632,16.632-16.632s16.632,7.446,16.632,16.632c0,9.186-7.446,16.632-16.632,16.632
						S133.368,359.186,133.368,350z M135.031,350c0,8.267,6.702,14.969,14.969,14.969s14.969-6.702,14.969-14.969
						c0-8.267-6.702-14.969-14.969-14.969S135.031,341.733,135.031,350z"/>
				</g>
			</g>
			<g transform="translate(150,450) scale(0.39312) rotate(0)">
				<g id="shape_10_1_14_">
					<path d="M130.344,450c0-10.855,8.801-19.656,19.656-19.656s19.656,8.801,19.656,19.656s-8.801,19.656-19.656,19.656
						S130.344,460.855,130.344,450z M132.31,450c0,9.771,7.92,17.69,17.69,17.69s17.69-7.92,17.69-17.69
						c0-9.77-7.92-17.69-17.69-17.69S132.31,440.23,132.31,450z"/>
				</g>
			</g>
			<g transform="translate(150,550) scale(0.4536) rotate(0)">
				<g id="shape_10_1_15_">
					<path d="M127.32,550c0-12.525,10.154-22.68,22.68-22.68s22.68,10.154,22.68,22.68s-10.154,22.68-22.68,22.68
						S127.32,562.525,127.32,550z M129.588,550c0,11.273,9.139,20.412,20.412,20.412s20.412-9.139,20.412-20.412
						c0-11.273-9.139-20.412-20.412-20.412S129.588,538.727,129.588,550z"/>
				</g>
			</g>
			<g transform="translate(150,650) scale(0.51408) rotate(0)">
				<g id="shape_10_1_16_">
					<path d="M124.296,650c0-14.196,11.508-25.704,25.704-25.704s25.704,11.508,25.704,25.704S164.196,675.704,150,675.704
						S124.296,664.196,124.296,650z M126.866,650c0,12.776,10.357,23.134,23.134,23.134s23.134-10.357,23.134-23.134
						c0-12.776-10.357-23.134-23.134-23.134S126.866,637.224,126.866,650z"/>
				</g>
			</g>
			<g transform="translate(150,750) scale(0.57456) rotate(0)">
				<g id="shape_10_1_17_">
					<path d="M121.272,750c0-15.866,12.862-28.727,28.728-28.727s28.728,12.861,28.728,28.727S165.866,778.727,150,778.727
						S121.272,765.866,121.272,750z M124.145,750c0,14.279,11.576,25.856,25.855,25.856s25.855-11.576,25.855-25.856
						S164.279,724.145,150,724.145S124.145,735.721,124.145,750z"/>
				</g>
			</g>
			<g transform="translate(150,850) scale(0.63504) rotate(0)">
				<g id="shape_10_1_18_">
					<path d="M118.248,850c0-17.536,14.216-31.752,31.752-31.752s31.752,14.216,31.752,31.752S167.536,881.752,150,881.752
						S118.248,867.536,118.248,850z M121.423,850c0,15.782,12.794,28.577,28.577,28.577s28.577-12.795,28.577-28.577
						S165.783,821.423,150,821.423S121.423,834.218,121.423,850z"/>
				</g>
			</g>
			<g transform="translate(150,950) scale(0.69552) rotate(0)">
				<g id="shape_10_1_19_">
					<path d="M115.224,950c0-19.206,15.57-34.776,34.776-34.776s34.776,15.57,34.776,34.776s-15.57,34.776-34.776,34.776
						S115.224,969.206,115.224,950z M118.702,950c0,17.285,14.013,31.299,31.298,31.299s31.298-14.014,31.298-31.299
						S167.286,918.701,150,918.701S118.702,932.715,118.702,950z"/>
				</g>
			</g>
			<g transform="translate(250,50) scale(0.1368) rotate(0)">
				<g id="shape_10_1_20_">
					<path d="M243.16,50c0-3.778,3.062-6.84,6.84-6.84s6.84,3.062,6.84,6.84c0,3.778-3.062,6.84-6.84,6.84S243.16,53.778,243.16,50z
						 M243.844,50c0,3.4,2.756,6.156,6.156,6.156s6.156-2.756,6.156-6.156c0-3.4-2.756-6.156-6.156-6.156S243.844,46.6,243.844,50z"
						/>
				</g>
			</g>
			<g transform="translate(250,150) scale(0.19152) rotate(0)">
				<g id="shape_10_1_21_">
					<path d="M240.424,150c0-5.289,4.288-9.576,9.576-9.576s9.576,4.288,9.576,9.576c0,5.289-4.288,9.576-9.576,9.576
						S240.424,155.289,240.424,150z M241.382,150c0,4.76,3.858,8.618,8.618,8.618s8.618-3.858,8.618-8.618
						c0-4.76-3.858-8.618-8.618-8.618S241.382,145.24,241.382,150z"/>
				</g>
			</g>
			<g transform="translate(250,250) scale(0.24624) rotate(0)">
				<g id="shape_10_1_22_">
					<path d="M237.688,250c0-6.8,5.512-12.312,12.312-12.312S262.312,243.2,262.312,250c0,6.8-5.512,12.312-12.312,12.312
						S237.688,256.8,237.688,250z M238.919,250c0,6.12,4.961,11.081,11.081,11.081s11.081-4.961,11.081-11.081
						c0-6.12-4.961-11.081-11.081-11.081S238.919,243.88,238.919,250z"/>
				</g>
			</g>
			<g transform="translate(250,350) scale(0.30096) rotate(0)">
				<g id="shape_10_1_23_">
					<path d="M234.952,350c0-8.31,6.737-15.048,15.048-15.048c8.31,0,15.048,6.737,15.048,15.048
						c0,8.311-6.737,15.048-15.048,15.048C241.689,365.048,234.952,358.311,234.952,350z M236.457,350
						c0,7.48,6.063,13.543,13.543,13.543c7.479,0,13.543-6.063,13.543-13.543c0-7.479-6.064-13.543-13.543-13.543
						C242.52,336.457,236.457,342.521,236.457,350z"/>
				</g>
			</g>
			<g transform="translate(250,450) scale(0.35568) rotate(0)">
				<g id="shape_10_1_24_">
					<path d="M232.216,450c0-9.822,7.962-17.784,17.784-17.784c9.822,0,17.784,7.962,17.784,17.784s-7.962,17.784-17.784,17.784
						C240.178,467.784,232.216,459.822,232.216,450z M233.995,450c0,8.84,7.166,16.006,16.005,16.006
						c8.84,0,16.006-7.166,16.006-16.006c0-8.84-7.166-16.006-16.006-16.006C241.16,433.994,233.995,441.16,233.995,450z"/>
				</g>
			</g>
			<g transform="translate(250,550) scale(0.4104) rotate(0)">
				<g id="shape_10_1_25_">
					<path d="M229.48,550c0-11.333,9.187-20.519,20.52-20.519c11.333,0,20.52,9.186,20.52,20.519s-9.187,20.52-20.52,20.52
						C238.667,570.52,229.48,561.333,229.48,550z M231.532,550c0,10.199,8.268,18.468,18.468,18.468s18.468-8.269,18.468-18.468
						S260.2,531.532,250,531.532S231.532,539.801,231.532,550z"/>
				</g>
			</g>
			<g transform="translate(250,650) scale(0.46512) rotate(0)">
				<g id="shape_10_1_26_">
					<path d="M226.744,650c0-12.844,10.412-23.256,23.256-23.256c12.844,0,23.256,10.412,23.256,23.256
						c0,12.844-10.412,23.256-23.256,23.256C237.156,673.256,226.744,662.844,226.744,650z M229.07,650
						c0,11.56,9.371,20.931,20.93,20.931s20.93-9.371,20.93-20.931c0-11.56-9.371-20.931-20.93-20.931S229.07,638.44,229.07,650z"/>
				</g>
			</g>
			<g transform="translate(250,750) scale(0.51984) rotate(0)">
				<g id="shape_10_1_27_">
					<path d="M224.008,750c0-14.355,11.637-25.992,25.992-25.992c14.355,0,25.992,11.637,25.992,25.992
						c0,14.356-11.637,25.992-25.992,25.992C235.645,775.992,224.008,764.356,224.008,750z M226.607,750
						c0,12.92,10.473,23.393,23.393,23.393S273.393,762.92,273.393,750S262.919,726.607,250,726.607S226.607,737.08,226.607,750z"/>
				</g>
			</g>
			<g transform="translate(250,850) scale(0.57456) rotate(0)">
				<g id="shape_10_1_28_">
					<path d="M221.272,850c0-15.866,12.862-28.727,28.728-28.727s28.728,12.861,28.728,28.727S265.866,878.727,250,878.727
						S221.272,865.866,221.272,850z M224.145,850c0,14.279,11.576,25.856,25.855,25.856s25.855-11.576,25.855-25.856
						S264.279,824.144,250,824.144S224.145,835.721,224.145,850z"/>
				</g>
			</g>
			<g transform="translate(250,950) scale(0.62928) rotate(0)">
				<g id="shape_10_1_29_">
					<path d="M218.536,950c0-17.377,14.087-31.464,31.464-31.464s31.464,14.087,31.464,31.464S267.377,981.464,250,981.464
						S218.536,967.377,218.536,950z M221.683,950c0,15.64,12.678,28.317,28.317,28.317S278.317,965.64,278.317,950
						S265.639,921.683,250,921.683S221.683,934.36,221.683,950z"/>
				</g>
			</g>
			<g transform="translate(350,50) scale(0.1224) rotate(0)">
				<g id="shape_10_1_30_">
					<path d="M343.88,50c0-3.38,2.74-6.12,6.12-6.12c3.38,0,6.12,2.74,6.12,6.12c0,3.38-2.74,6.12-6.12,6.12
						C346.62,56.12,343.88,53.38,343.88,50z M344.492,50c0,3.042,2.466,5.508,5.508,5.508s5.508-2.466,5.508-5.508
						s-2.466-5.508-5.508-5.508S344.492,46.958,344.492,50z"/>
				</g>
			</g>
			<g transform="translate(350,150) scale(0.17136) rotate(0)">
				<g id="shape_10_1_31_">
					<path d="M341.432,150c0-4.732,3.836-8.568,8.568-8.568s8.568,3.836,8.568,8.568c0,4.732-3.836,8.568-8.568,8.568
						S341.432,154.732,341.432,150z M342.289,150c0,4.259,3.452,7.711,7.711,7.711s7.711-3.452,7.711-7.711
						c0-4.259-3.452-7.711-7.711-7.711S342.289,145.741,342.289,150z"/>
				</g>
			</g>
			<g transform="translate(350,250) scale(0.22032) rotate(0)">
				<g id="shape_10_1_32_">
					<path d="M338.984,250c0-6.084,4.932-11.016,11.016-11.016s11.016,4.932,11.016,11.016c0,6.084-4.932,11.016-11.016,11.016
						S338.984,256.084,338.984,250z M340.086,250c0,5.476,4.438,9.915,9.914,9.915c5.476,0,9.914-4.439,9.914-9.915
						c0-5.476-4.439-9.915-9.914-9.915C344.524,240.085,340.086,244.524,340.086,250z"/>
				</g>
			</g>
			<g transform="translate(350,350) scale(0.26928) rotate(0)">
				<g id="shape_10_1_33_">
					<path d="M336.536,350c0-7.436,6.028-13.464,13.464-13.464c7.435,0,13.464,6.028,13.464,13.464s-6.028,13.464-13.464,13.464
						C342.564,363.464,336.536,357.436,336.536,350z M337.883,350c0,6.692,5.425,12.118,12.117,12.118
						c6.692,0,12.117-5.425,12.117-12.118c0-6.692-5.425-12.118-12.117-12.118C343.308,337.882,337.883,343.308,337.883,350z"/>
				</g>
			</g>
			<g transform="translate(350,450) scale(0.31824) rotate(0)">
				<g id="shape_10_1_34_">
					<path d="M334.088,450c0-8.788,7.124-15.912,15.912-15.912c8.788,0,15.912,7.124,15.912,15.912
						c0,8.788-7.124,15.912-15.912,15.912C341.212,465.912,334.088,458.788,334.088,450z M335.68,450
						c0,7.909,6.411,14.32,14.32,14.32s14.32-6.411,14.32-14.32c0-7.909-6.411-14.32-14.32-14.32S335.68,442.091,335.68,450z"/>
				</g>
			</g>
			<g transform="translate(350,550) scale(0.3672) rotate(0)">
				<g id="shape_10_1_35_">
					<path d="M331.64,550c0-10.14,8.221-18.36,18.36-18.36c10.14,0,18.36,8.221,18.36,18.36s-8.221,18.36-18.36,18.36
						C339.86,568.36,331.64,560.14,331.64,550z M333.476,550c0,9.126,7.398,16.524,16.524,16.524s16.524-7.398,16.524-16.524
						s-7.398-16.524-16.524-16.524S333.476,540.874,333.476,550z"/>
				</g>
			</g>
			<g transform="translate(350,650) scale(0.41616) rotate(0)">
				<g id="shape_10_1_36_">
					<path d="M329.192,650c0-11.492,9.315-20.808,20.808-20.808c11.492,0,20.808,9.315,20.808,20.808s-9.315,20.808-20.808,20.808
						C338.508,670.808,329.192,661.492,329.192,650z M331.272,650c0,10.343,8.385,18.727,18.728,18.727s18.728-8.385,18.728-18.727
						c0-10.343-8.385-18.727-18.728-18.727S331.272,639.657,331.272,650z"/>
				</g>
			</g>
			<g transform="translate(350,750) scale(0.46512) rotate(0)">
				<g id="shape_10_1_37_">
					<path d="M326.744,750c0-12.844,10.412-23.256,23.256-23.256c12.844,0,23.256,10.412,23.256,23.256
						c0,12.844-10.412,23.256-23.256,23.256C337.156,773.256,326.744,762.844,326.744,750z M329.069,750
						c0,11.56,9.371,20.931,20.931,20.931s20.931-9.371,20.931-20.931c0-11.56-9.371-20.931-20.931-20.931
						S329.069,738.44,329.069,750z"/>
				</g>
			</g>
			<g transform="translate(350,850) scale(0.51408) rotate(0)">
				<g id="shape_10_1_38_">
					<path d="M324.296,850c0-14.196,11.508-25.704,25.704-25.704s25.704,11.508,25.704,25.704S364.196,875.704,350,875.704
						S324.296,864.196,324.296,850z M326.866,850c0,12.776,10.357,23.134,23.134,23.134s23.134-10.357,23.134-23.134
						S362.776,826.866,350,826.866S326.866,837.224,326.866,850z"/>
				</g>
			</g>
			<g transform="translate(350,950) scale(0.56304) rotate(0)">
				<g id="shape_10_1_39_">
					<path d="M321.848,950c0-15.548,12.604-28.152,28.152-28.152c15.548,0,28.152,12.604,28.152,28.152S365.548,978.152,350,978.152
						C334.452,978.152,321.848,965.548,321.848,950z M324.663,950c0,13.993,11.344,25.337,25.337,25.337
						s25.337-11.344,25.337-25.337S363.993,924.663,350,924.663S324.663,936.007,324.663,950z"/>
				</g>
			</g>
			<g transform="translate(450,50) scale(0.108) rotate(0)">
				<g id="shape_10_1_40_">
					<path d="M444.6,50c0-2.982,2.418-5.4,5.4-5.4s5.4,2.417,5.4,5.4c0,2.982-2.418,5.4-5.4,5.4S444.6,52.982,444.6,50z M445.14,50
						c0,2.684,2.176,4.86,4.86,4.86s4.86-2.176,4.86-4.86c0-2.684-2.176-4.86-4.86-4.86S445.14,47.316,445.14,50z"/>
				</g>
			</g>
			<g transform="translate(450,150) scale(0.1512) rotate(0)">
				<g id="shape_10_1_41_">
					<path d="M442.44,150c0-4.175,3.385-7.56,7.56-7.56s7.56,3.385,7.56,7.56c0,4.175-3.385,7.56-7.56,7.56
						S442.44,154.175,442.44,150z M443.196,150c0,3.758,3.046,6.804,6.804,6.804c3.758,0,6.804-3.046,6.804-6.804
						c0-3.758-3.046-6.804-6.804-6.804C446.242,143.196,443.196,146.242,443.196,150z"/>
				</g>
			</g>
			<g transform="translate(450,250) scale(0.1944) rotate(0)">
				<g id="shape_10_1_42_">
					<path d="M440.28,250c0-5.368,4.352-9.72,9.72-9.72s9.72,4.352,9.72,9.72c0,5.368-4.352,9.72-9.72,9.72
						S440.28,255.368,440.28,250z M441.252,250c0,4.832,3.917,8.748,8.748,8.748c4.831,0,8.748-3.916,8.748-8.748
						c0-4.831-3.917-8.748-8.748-8.748C445.169,241.252,441.252,245.169,441.252,250z"/>
				</g>
			</g>
			<g transform="translate(450,350) scale(0.2376) rotate(0)">
				<g id="shape_10_1_43_">
					<path d="M438.12,350c0-6.561,5.318-11.88,11.88-11.88s11.88,5.319,11.88,11.88s-5.318,11.88-11.88,11.88
						S438.12,356.561,438.12,350z M439.308,350c0,5.905,4.787,10.692,10.692,10.692s10.692-4.787,10.692-10.692
						c0-5.905-4.787-10.692-10.692-10.692S439.308,344.095,439.308,350z"/>
				</g>
			</g>
			<g transform="translate(450,450) scale(0.2808) rotate(0)">
				<g id="shape_10_1_44_">
					<path d="M435.96,450c0-7.754,6.286-14.04,14.04-14.04s14.04,6.286,14.04,14.04c0,7.754-6.286,14.04-14.04,14.04
						S435.96,457.754,435.96,450z M437.364,450c0,6.979,5.657,12.636,12.636,12.636c6.978,0,12.636-5.657,12.636-12.636
						c0-6.978-5.657-12.636-12.636-12.636C443.021,437.364,437.364,443.022,437.364,450z"/>
				</g>
			</g>
			<g transform="translate(450,550) scale(0.324) rotate(0)">
				<g id="shape_10_1_45_">
					<path d="M433.8,550c0-8.947,7.253-16.2,16.2-16.2s16.2,7.253,16.2,16.2c0,8.947-7.253,16.2-16.2,16.2S433.8,558.947,433.8,550z
						 M435.42,550c0,8.053,6.527,14.58,14.58,14.58s14.58-6.527,14.58-14.58c0-8.053-6.527-14.58-14.58-14.58
						S435.42,541.947,435.42,550z"/>
				</g>
			</g>
			<g transform="translate(450,650) scale(0.3672) rotate(0)">
				<g id="shape_10_1_46_">
					<path d="M431.64,650c0-10.14,8.221-18.36,18.36-18.36c10.14,0,18.36,8.221,18.36,18.36s-8.221,18.36-18.36,18.36
						C439.86,668.36,431.64,660.14,431.64,650z M433.476,650c0,9.126,7.398,16.524,16.524,16.524s16.524-7.398,16.524-16.524
						s-7.398-16.524-16.524-16.524S433.476,640.874,433.476,650z"/>
				</g>
			</g>
			<g transform="translate(450,750) scale(0.4104) rotate(0)">
				<g id="shape_10_1_47_">
					<path d="M429.48,750c0-11.333,9.186-20.519,20.52-20.519s20.52,9.186,20.52,20.519s-9.186,20.52-20.52,20.52
						S429.48,761.333,429.48,750z M431.532,750c0,10.199,8.269,18.468,18.468,18.468c10.199,0,18.468-8.269,18.468-18.468
						s-8.269-18.468-18.468-18.468C439.801,731.532,431.532,739.801,431.532,750z"/>
				</g>
			</g>
			<g transform="translate(450,850) scale(0.4536) rotate(0)">
				<g id="shape_10_1_48_">
					<path d="M427.32,850c0-12.525,10.154-22.68,22.68-22.68c12.525,0,22.68,10.154,22.68,22.68s-10.154,22.68-22.68,22.68
						C437.475,872.68,427.32,862.525,427.32,850z M429.588,850c0,11.273,9.139,20.412,20.412,20.412s20.412-9.139,20.412-20.412
						s-9.139-20.412-20.412-20.412S429.588,838.727,429.588,850z"/>
				</g>
			</g>
			<g transform="translate(450,950) scale(0.4968) rotate(0)">
				<g id="shape_10_1_49_">
					<path d="M425.16,950c0-13.719,11.121-24.84,24.84-24.84c13.719,0,24.84,11.121,24.84,24.84c0,13.719-11.121,24.84-24.84,24.84
						C436.281,974.84,425.16,963.719,425.16,950z M427.644,950c0,12.347,10.01,22.356,22.356,22.356
						c12.347,0,22.356-10.01,22.356-22.356s-10.01-22.356-22.356-22.356C437.653,927.644,427.644,937.653,427.644,950z"/>
				</g>
			</g>
			<g transform="translate(550,50) scale(0.0936) rotate(0)">
				<g id="shape_10_1_50_">
					<path d="M545.32,50c0-2.585,2.095-4.68,4.68-4.68s4.68,2.095,4.68,4.68s-2.095,4.68-4.68,4.68S545.32,52.585,545.32,50z
						 M545.788,50c0,2.326,1.886,4.212,4.212,4.212c2.326,0,4.212-1.886,4.212-4.212c0-2.326-1.886-4.212-4.212-4.212
						C547.674,45.788,545.788,47.674,545.788,50z"/>
				</g>
			</g>
			<g transform="translate(550,150) scale(0.13104) rotate(0)">
				<g id="shape_10_1_51_">
					<path d="M543.448,150c0-3.619,2.934-6.552,6.552-6.552c3.618,0,6.552,2.933,6.552,6.552c0,3.619-2.934,6.552-6.552,6.552
						C546.382,156.552,543.448,153.619,543.448,150z M544.104,150c0,3.257,2.64,5.897,5.896,5.897c3.257,0,5.896-2.64,5.896-5.897
						c0-3.257-2.64-5.897-5.896-5.897C546.743,144.103,544.104,146.743,544.104,150z"/>
				</g>
			</g>
			<g transform="translate(550,250) scale(0.16848) rotate(0)">
				<g id="shape_10_1_52_">
					<path d="M541.576,250c0-4.652,3.772-8.424,8.424-8.424s8.424,3.771,8.424,8.424c0,4.652-3.771,8.424-8.424,8.424
						S541.576,254.652,541.576,250z M542.418,250c0,4.187,3.394,7.582,7.582,7.582s7.582-3.395,7.582-7.582
						s-3.394-7.581-7.582-7.581S542.418,245.813,542.418,250z"/>
				</g>
			</g>
			<g transform="translate(550,350) scale(0.20592) rotate(0)">
				<g id="shape_10_1_53_">
					<path d="M539.704,350c0-5.686,4.609-10.296,10.296-10.296c5.686,0,10.296,4.609,10.296,10.296
						c0,5.687-4.609,10.296-10.296,10.296C544.313,360.296,539.704,355.687,539.704,350z M540.733,350
						c0,5.118,4.149,9.267,9.267,9.267s9.267-4.149,9.267-9.267c0-5.118-4.149-9.267-9.267-9.267S540.733,344.882,540.733,350z"/>
				</g>
			</g>
			<g transform="translate(550,450) scale(0.24336) rotate(0)">
				<g id="shape_10_1_54_">
					<path d="M537.832,450c0-6.721,5.447-12.168,12.168-12.168s12.168,5.447,12.168,12.168s-5.447,12.168-12.168,12.168
						S537.832,456.721,537.832,450z M539.049,450c0,6.048,4.903,10.951,10.951,10.951s10.951-4.903,10.951-10.951
						c0-6.048-4.903-10.951-10.951-10.951S539.049,443.952,539.049,450z"/>
				</g>
			</g>
			<g transform="translate(550,550) scale(0.2808) rotate(0)">
				<g id="shape_10_1_55_">
					<path d="M535.96,550c0-7.754,6.286-14.04,14.04-14.04s14.04,6.286,14.04,14.04s-6.286,14.04-14.04,14.04
						S535.96,557.754,535.96,550z M537.364,550c0,6.979,5.657,12.636,12.636,12.636s12.636-5.657,12.636-12.636
						s-5.657-12.636-12.636-12.636S537.364,543.021,537.364,550z"/>
				</g>
			</g>
			<g transform="translate(550,650) scale(0.31824) rotate(0)">
				<g id="shape_10_1_56_">
					<path d="M534.088,650c0-8.788,7.124-15.912,15.912-15.912s15.912,7.124,15.912,15.912s-7.124,15.912-15.912,15.912
						S534.088,658.788,534.088,650z M535.68,650c0,7.909,6.411,14.32,14.32,14.32s14.32-6.411,14.32-14.32s-6.411-14.32-14.32-14.32
						S535.68,642.091,535.68,650z"/>
				</g>
			</g>
			<g transform="translate(550,750) scale(0.35568) rotate(0)">
				<g id="shape_10_1_57_">
					<path d="M532.216,750c0-9.822,7.962-17.784,17.784-17.784c9.822,0,17.784,7.962,17.784,17.784
						c0,9.822-7.962,17.784-17.784,17.784C540.178,767.784,532.216,759.822,532.216,750z M533.994,750
						c0,8.84,7.166,16.006,16.006,16.006s16.006-7.166,16.006-16.006S558.84,733.994,550,733.994S533.994,741.16,533.994,750z"/>
				</g>
			</g>
			<g transform="translate(550,850) scale(0.39312) rotate(0)">
				<g id="shape_10_1_58_">
					<path d="M530.344,850c0-10.856,8.801-19.656,19.656-19.656c10.855,0,19.656,8.801,19.656,19.656s-8.801,19.656-19.656,19.656
						C539.144,869.656,530.344,860.856,530.344,850z M532.31,850c0,9.771,7.92,17.69,17.69,17.69s17.69-7.92,17.69-17.69
						s-7.92-17.69-17.69-17.69S532.31,840.229,532.31,850z"/>
				</g>
			</g>
			<g transform="translate(550,950) scale(0.43056) rotate(0)">
				<g id="shape_10_1_59_">
					<path d="M528.472,950c0-11.89,9.639-21.528,21.528-21.528s21.528,9.639,21.528,21.528S561.89,971.528,550,971.528
						S528.472,961.89,528.472,950z M530.625,950c0,10.7,8.675,19.375,19.375,19.375S569.375,960.7,569.375,950
						S560.7,930.625,550,930.625S530.625,939.3,530.625,950z"/>
				</g>
			</g>
			<g transform="translate(650,50) scale(0.0792) rotate(0)">
				<g id="shape_10_1_60_">
					<path d="M646.04,50c0-2.187,1.773-3.96,3.96-3.96s3.96,1.773,3.96,3.96s-1.773,3.96-3.96,3.96S646.04,52.187,646.04,50z
						 M646.435,50c0,1.968,1.596,3.564,3.565,3.564c1.969,0,3.565-1.596,3.565-3.564c0-1.968-1.596-3.564-3.565-3.564
						C648.031,46.436,646.435,48.032,646.435,50z"/>
				</g>
			</g>
			<g transform="translate(650,150) scale(0.11088) rotate(0)">
				<g id="shape_10_1_61_">
					<path d="M644.456,150c0-3.062,2.482-5.544,5.544-5.544c3.061,0,5.544,2.482,5.544,5.544s-2.482,5.544-5.544,5.544
						C646.938,155.544,644.456,153.062,644.456,150z M645.011,150c0,2.756,2.233,4.99,4.989,4.99c2.756,0,4.989-2.234,4.989-4.99
						c0-2.756-2.233-4.99-4.989-4.99C647.244,145.01,645.011,147.244,645.011,150z"/>
				</g>
			</g>
			<g transform="translate(650,250) scale(0.14256) rotate(0)">
				<g id="shape_10_1_62_">
					<path d="M642.872,250c0-3.936,3.191-7.128,7.128-7.128c3.936,0,7.128,3.191,7.128,7.128c0,3.937-3.191,7.128-7.128,7.128
						C646.063,257.128,642.872,253.937,642.872,250z M643.585,250c0,3.543,2.872,6.415,6.415,6.415s6.415-2.872,6.415-6.415
						s-2.872-6.415-6.415-6.415S643.585,246.457,643.585,250z"/>
				</g>
			</g>
			<g transform="translate(650,350) scale(0.17424) rotate(0)">
				<g id="shape_10_1_63_">
					<path d="M641.288,350c0-4.811,3.9-8.712,8.712-8.712c4.811,0,8.712,3.9,8.712,8.712c0,4.812-3.9,8.712-8.712,8.712
						C645.188,358.712,641.288,354.812,641.288,350z M642.159,350c0,4.331,3.511,7.841,7.841,7.841c4.33,0,7.841-3.51,7.841-7.841
						c0-4.331-3.511-7.841-7.841-7.841C645.67,342.159,642.159,345.669,642.159,350z"/>
				</g>
			</g>
			<g transform="translate(650,450) scale(0.20592) rotate(0)">
				<g id="shape_10_1_64_">
					<path d="M639.704,450c0-5.686,4.609-10.296,10.296-10.296c5.686,0,10.296,4.609,10.296,10.296
						c0,5.687-4.609,10.296-10.296,10.296C644.313,460.296,639.704,455.687,639.704,450z M640.733,450
						c0,5.118,4.149,9.267,9.267,9.267s9.267-4.148,9.267-9.267c0-5.118-4.149-9.267-9.267-9.267S640.733,444.882,640.733,450z"/>
				</g>
			</g>
			<g transform="translate(650,550) scale(0.2376) rotate(0)">
				<g id="shape_10_1_65_">
					<path d="M638.12,550c0-6.561,5.318-11.88,11.88-11.88c6.561,0,11.88,5.318,11.88,11.88c0,6.562-5.318,11.88-11.88,11.88
						C643.438,561.88,638.12,556.562,638.12,550z M639.308,550c0,5.905,4.787,10.692,10.692,10.692
						c5.905,0,10.692-4.787,10.692-10.692c0-5.905-4.787-10.692-10.692-10.692C644.095,539.308,639.308,544.095,639.308,550z"/>
				</g>
			</g>
			<g transform="translate(650,650) scale(0.26928) rotate(0)">
				<g id="shape_10_1_66_">
					<path d="M636.536,650c0-7.435,6.028-13.464,13.464-13.464s13.464,6.028,13.464,13.464s-6.028,13.464-13.464,13.464
						S636.536,657.435,636.536,650z M637.883,650c0,6.692,5.425,12.117,12.117,12.117s12.117-5.425,12.117-12.117
						s-5.425-12.117-12.117-12.117S637.883,643.308,637.883,650z"/>
				</g>
			</g>
			<g transform="translate(650,750) scale(0.30096) rotate(0)">
				<g id="shape_10_1_67_">
					<path d="M634.952,750c0-8.31,6.737-15.048,15.048-15.048s15.048,6.737,15.048,15.048S658.31,765.048,650,765.048
						S634.952,758.31,634.952,750z M636.457,750c0,7.479,6.064,13.543,13.543,13.543s13.543-6.064,13.543-13.543
						s-6.064-13.543-13.543-13.543S636.457,742.521,636.457,750z"/>
				</g>
			</g>
			<g transform="translate(650,850) scale(0.33264) rotate(0)">
				<g id="shape_10_1_68_">
					<path d="M633.368,850c0-9.185,7.446-16.632,16.632-16.632s16.632,7.446,16.632,16.632s-7.446,16.632-16.632,16.632
						S633.368,859.185,633.368,850z M635.031,850c0,8.267,6.702,14.969,14.969,14.969s14.969-6.702,14.969-14.969
						s-6.702-14.969-14.969-14.969S635.031,841.733,635.031,850z"/>
				</g>
			</g>
			<g transform="translate(650,950) scale(0.36432) rotate(0)">
				<g id="shape_10_1_69_">
					<path d="M631.784,950c0-10.06,8.155-18.216,18.216-18.216s18.216,8.155,18.216,18.216S660.06,968.216,650,968.216
						S631.784,960.06,631.784,950z M633.605,950c0,9.055,7.34,16.394,16.395,16.394s16.394-7.34,16.394-16.394
						s-7.34-16.394-16.394-16.394S633.605,940.945,633.605,950z"/>
				</g>
			</g>
			<g transform="translate(750,50) scale(0.0648) rotate(0)">
				<g id="shape_10_1_70_">
					<path d="M746.76,50c0-1.79,1.451-3.24,3.24-3.24c1.789,0,3.24,1.451,3.24,3.24c0,1.79-1.451,3.24-3.24,3.24
						C748.211,53.24,746.76,51.79,746.76,50z M747.084,50c0,1.61,1.306,2.916,2.916,2.916s2.916-1.306,2.916-2.916
						c0-1.61-1.306-2.916-2.916-2.916S747.084,48.39,747.084,50z"/>
				</g>
			</g>
			<g transform="translate(750,150) scale(0.09072) rotate(0)">
				<g id="shape_10_1_71_">
					<path d="M745.464,150c0-2.505,2.031-4.536,4.536-4.536c2.505,0,4.536,2.031,4.536,4.536c0,2.505-2.031,4.536-4.536,4.536
						C747.495,154.536,745.464,152.505,745.464,150z M745.918,150c0,2.255,1.827,4.083,4.082,4.083c2.255,0,4.082-1.828,4.082-4.083
						c0-2.255-1.827-4.082-4.082-4.082C747.745,145.918,745.918,147.745,745.918,150z"/>
				</g>
			</g>
			<g transform="translate(750,250) scale(0.11664) rotate(0)">
				<g id="shape_10_1_72_">
					<path d="M744.168,250c0-3.221,2.611-5.832,5.832-5.832s5.832,2.611,5.832,5.832c0,3.221-2.611,5.832-5.832,5.832
						S744.168,253.221,744.168,250z M744.751,250c0,2.899,2.351,5.249,5.249,5.249c2.898,0,5.249-2.35,5.249-5.249
						c0-2.899-2.351-5.249-5.249-5.249C747.102,244.751,744.751,247.101,744.751,250z"/>
				</g>
			</g>
			<g transform="translate(750,350) scale(0.14256) rotate(0)">
				<g id="shape_10_1_73_">
					<path d="M742.872,350c0-3.936,3.191-7.128,7.128-7.128c3.936,0,7.128,3.191,7.128,7.128c0,3.937-3.191,7.128-7.128,7.128
						C746.063,357.128,742.872,353.937,742.872,350z M743.585,350c0,3.543,2.872,6.415,6.415,6.415s6.415-2.872,6.415-6.415
						s-2.872-6.415-6.415-6.415S743.585,346.457,743.585,350z"/>
				</g>
			</g>
			<g transform="translate(750,450) scale(0.16848) rotate(0)">
				<g id="shape_10_1_74_">
					<path d="M741.576,450c0-4.652,3.771-8.424,8.424-8.424c4.652,0,8.424,3.772,8.424,8.424c0,4.652-3.771,8.424-8.424,8.424
						C745.348,458.424,741.576,454.652,741.576,450z M742.418,450c0,4.188,3.394,7.582,7.582,7.582s7.582-3.395,7.582-7.582
						s-3.394-7.582-7.582-7.582S742.418,445.813,742.418,450z"/>
				</g>
			</g>
			<g transform="translate(750,550) scale(0.1944) rotate(0)">
				<g id="shape_10_1_75_">
					<path d="M740.28,550c0-5.368,4.352-9.72,9.72-9.72c5.368,0,9.72,4.352,9.72,9.72c0,5.368-4.352,9.72-9.72,9.72
						C744.632,559.72,740.28,555.368,740.28,550z M741.252,550c0,4.831,3.917,8.748,8.748,8.748s8.748-3.917,8.748-8.748
						s-3.917-8.748-8.748-8.748S741.252,545.169,741.252,550z"/>
				</g>
			</g>
			<g transform="translate(750,650) scale(0.22032) rotate(0)">
				<g id="shape_10_1_76_">
					<path d="M738.984,650c0-6.084,4.932-11.016,11.016-11.016s11.016,4.932,11.016,11.016s-4.932,11.016-11.016,11.016
						S738.984,656.084,738.984,650z M740.086,650c0,5.476,4.439,9.914,9.914,9.914s9.914-4.439,9.914-9.914
						s-4.438-9.914-9.914-9.914S740.086,644.524,740.086,650z"/>
				</g>
			</g>
			<g transform="translate(750,750) scale(0.24624) rotate(0)">
				<g id="shape_10_1_77_">
					<path d="M737.688,750c0-6.8,5.513-12.312,12.313-12.312S762.313,743.2,762.313,750S756.8,762.312,750,762.312
						S737.688,756.8,737.688,750z M738.919,750c0,6.12,4.961,11.081,11.081,11.081c6.12,0,11.081-4.961,11.081-11.081
						S756.12,738.919,750,738.919C743.88,738.919,738.919,743.88,738.919,750z"/>
				</g>
			</g>
			<g transform="translate(750,850) scale(0.27216) rotate(0)">
				<g id="shape_10_1_78_">
					<path d="M736.392,850c0-7.516,6.093-13.608,13.608-13.608c7.516,0,13.608,6.093,13.608,13.608s-6.093,13.608-13.608,13.608
						C742.484,863.608,736.392,857.516,736.392,850z M737.753,850c0,6.764,5.483,12.247,12.247,12.247
						c6.764,0,12.247-5.483,12.247-12.247s-5.483-12.247-12.247-12.247C743.236,837.753,737.753,843.236,737.753,850z"/>
				</g>
			</g>
			<g transform="translate(750,950) scale(0.29808) rotate(0)">
				<g id="shape_10_1_79_">
					<path d="M735.096,950c0-8.231,6.673-14.904,14.904-14.904s14.904,6.673,14.904,14.904s-6.673,14.904-14.904,14.904
						S735.096,958.231,735.096,950z M736.586,950c0,7.408,6.006,13.414,13.414,13.414s13.414-6.006,13.414-13.414
						s-6.006-13.414-13.414-13.414S736.586,942.592,736.586,950z"/>
				</g>
			</g>
			<g transform="translate(850,50) scale(0.0504) rotate(0)">
				<g id="shape_10_1_80_">
					<path d="M847.48,50c0-1.392,1.128-2.52,2.52-2.52s2.519,1.128,2.519,2.52c0,1.392-1.128,2.52-2.519,2.52
						S847.48,51.392,847.48,50z M847.732,50c0,1.252,1.015,2.268,2.268,2.268c1.253,0,2.268-1.016,2.268-2.268
						c0-1.252-1.015-2.268-2.268-2.268C848.747,47.732,847.732,48.748,847.732,50z"/>
				</g>
			</g>
			<g transform="translate(850,150) scale(0.07056) rotate(0)">
				<g id="shape_10_1_81_">
					<path d="M846.472,150c0-1.948,1.58-3.528,3.528-3.528c1.948,0,3.528,1.58,3.528,3.528c0,1.948-1.58,3.528-3.528,3.528
						C848.052,153.528,846.472,151.948,846.472,150z M846.825,150c0,1.753,1.421,3.175,3.175,3.175s3.175-1.422,3.175-3.175
						c0-1.753-1.421-3.175-3.175-3.175S846.825,148.247,846.825,150z"/>
				</g>
			</g>
			<g transform="translate(850,250) scale(0.09072) rotate(0)">
				<g id="shape_10_1_82_">
					<path d="M845.464,250c0-2.505,2.031-4.536,4.536-4.536c2.505,0,4.536,2.031,4.536,4.536c0,2.505-2.031,4.536-4.536,4.536
						C847.495,254.536,845.464,252.505,845.464,250z M845.918,250c0,2.255,1.827,4.083,4.082,4.083c2.255,0,4.082-1.828,4.082-4.083
						c0-2.255-1.827-4.082-4.082-4.082C847.745,245.918,845.918,247.745,845.918,250z"/>
				</g>
			</g>
			<g transform="translate(850,350) scale(0.11088) rotate(0)">
				<g id="shape_10_1_83_">
					<path d="M844.456,350c0-3.062,2.482-5.544,5.544-5.544c3.061,0,5.544,2.482,5.544,5.544s-2.482,5.544-5.544,5.544
						C846.938,355.544,844.456,353.062,844.456,350z M845.011,350c0,2.756,2.233,4.99,4.989,4.99c2.756,0,4.989-2.234,4.989-4.99
						c0-2.756-2.233-4.99-4.989-4.99C847.244,345.01,845.011,347.244,845.011,350z"/>
				</g>
			</g>
			<g transform="translate(850,450) scale(0.13104) rotate(0)">
				<g id="shape_10_1_84_">
					<path d="M843.448,450c0-3.618,2.934-6.552,6.552-6.552c3.618,0,6.552,2.934,6.552,6.552c0,3.618-2.934,6.552-6.552,6.552
						C846.382,456.552,843.448,453.618,843.448,450z M844.103,450c0,3.257,2.64,5.897,5.897,5.897c3.257,0,5.896-2.64,5.896-5.897
						c0-3.257-2.64-5.896-5.896-5.896C846.743,444.104,844.103,446.743,844.103,450z"/>
				</g>
			</g>
			<g transform="translate(850,550) scale(0.1512) rotate(0)">
				<g id="shape_10_1_85_">
					<path d="M842.44,550c0-4.175,3.384-7.56,7.56-7.56c4.176,0,7.56,3.385,7.56,7.56s-3.384,7.56-7.56,7.56
						C845.824,557.56,842.44,554.175,842.44,550z M843.196,550c0,3.758,3.046,6.804,6.804,6.804s6.804-3.046,6.804-6.804
						s-3.046-6.804-6.804-6.804S843.196,546.242,843.196,550z"/>
				</g>
			</g>
			<g transform="translate(850,650) scale(0.17136) rotate(0)">
				<g id="shape_10_1_86_">
					<path d="M841.432,650c0-4.732,3.836-8.568,8.568-8.568c4.732,0,8.568,3.836,8.568,8.568s-3.836,8.568-8.568,8.568
						C845.268,658.568,841.432,654.732,841.432,650z M842.289,650c0,4.259,3.452,7.711,7.711,7.711s7.711-3.452,7.711-7.711
						s-3.452-7.711-7.711-7.711S842.289,645.741,842.289,650z"/>
				</g>
			</g>
			<g transform="translate(850,750) scale(0.19152) rotate(0)">
				<g id="shape_10_1_87_">
					<path d="M840.424,750c0-5.289,4.287-9.576,9.576-9.576c5.289,0,9.576,4.287,9.576,9.576s-4.287,9.576-9.576,9.576
						C844.711,759.576,840.424,755.289,840.424,750z M841.382,750c0,4.76,3.858,8.618,8.618,8.618c4.76,0,8.618-3.858,8.618-8.618
						s-3.858-8.618-8.618-8.618C845.24,741.382,841.382,745.24,841.382,750z"/>
				</g>
			</g>
			<g transform="translate(850,850) scale(0.21168) rotate(0)">
				<g id="shape_10_1_88_">
					<path d="M839.416,850c0-5.846,4.738-10.584,10.584-10.584s10.584,4.738,10.584,10.584s-4.738,10.584-10.584,10.584
						S839.416,855.846,839.416,850z M840.475,850c0,5.261,4.265,9.525,9.525,9.525c5.261,0,9.525-4.265,9.525-9.525
						s-4.265-9.525-9.525-9.525C844.739,840.475,840.475,844.739,840.475,850z"/>
				</g>
			</g>
			<g transform="translate(850,950) scale(0.23184) rotate(0)">
				<g id="shape_10_1_89_">
					<path d="M838.408,950c0-6.402,5.189-11.592,11.592-11.592c6.402,0,11.592,5.19,11.592,11.592s-5.19,11.592-11.592,11.592
						C843.598,961.592,838.408,956.402,838.408,950z M839.567,950c0,5.762,4.671,10.433,10.433,10.433
						c5.762,0,10.433-4.671,10.433-10.433s-4.671-10.433-10.433-10.433C844.238,939.567,839.567,944.238,839.567,950z"/>
				</g>
			</g>
			<g transform="translate(950,50) scale(0.036) rotate(0)">
				<g id="shape_10_1_90_">
					<path d="M948.2,50c0-0.994,0.806-1.8,1.8-1.8c0.994,0,1.8,0.806,1.8,1.8c0,0.994-0.806,1.8-1.8,1.8
						C949.006,51.8,948.2,50.994,948.2,50z M948.38,50c0,0.895,0.726,1.62,1.62,1.62c0.894,0,1.62-0.726,1.62-1.62
						c0-0.894-0.726-1.62-1.62-1.62C949.105,48.38,948.38,49.106,948.38,50z"/>
				</g>
			</g>
			<g transform="translate(950,150) scale(0.0504) rotate(0)">
				<g id="shape_10_1_91_">
					<path d="M947.48,150c0-1.392,1.128-2.52,2.52-2.52s2.519,1.128,2.519,2.52c0,1.392-1.128,2.52-2.519,2.52
						S947.48,151.392,947.48,150z M947.732,150c0,1.252,1.015,2.268,2.268,2.268c1.253,0,2.268-1.016,2.268-2.268
						c0-1.252-1.015-2.268-2.268-2.268C948.747,147.732,947.732,148.748,947.732,150z"/>
				</g>
			</g>
			<g transform="translate(950,250) scale(0.0648) rotate(0)">
				<g id="shape_10_1_92_">
					<path d="M946.76,250c0-1.79,1.451-3.24,3.24-3.24c1.789,0,3.24,1.451,3.24,3.24c0,1.79-1.451,3.24-3.24,3.24
						C948.211,253.24,946.76,251.79,946.76,250z M947.084,250c0,1.61,1.306,2.916,2.916,2.916c1.61,0,2.916-1.306,2.916-2.916
						c0-1.61-1.306-2.916-2.916-2.916C948.39,247.084,947.084,248.39,947.084,250z"/>
				</g>
			</g>
			<g transform="translate(950,350) scale(0.0792) rotate(0)">
				<g id="shape_10_1_93_">
					<path d="M946.04,350c0-2.187,1.773-3.96,3.96-3.96s3.96,1.773,3.96,3.96s-1.773,3.96-3.96,3.96S946.04,352.187,946.04,350z
						 M946.435,350c0,1.968,1.596,3.564,3.565,3.564c1.969,0,3.564-1.596,3.564-3.564c0-1.968-1.596-3.564-3.564-3.564
						C948.031,346.436,946.435,348.032,946.435,350z"/>
				</g>
			</g>
			<g transform="translate(950,450) scale(0.0936) rotate(0)">
				<g id="shape_10_1_94_">
					<path d="M945.32,450c0-2.585,2.095-4.68,4.68-4.68s4.68,2.095,4.68,4.68s-2.095,4.68-4.68,4.68S945.32,452.585,945.32,450z
						 M945.788,450c0,2.326,1.886,4.212,4.212,4.212c2.326,0,4.212-1.886,4.212-4.212s-1.886-4.212-4.212-4.212
						C947.674,445.788,945.788,447.674,945.788,450z"/>
				</g>
			</g>
			<g transform="translate(950,550) scale(0.108) rotate(0)">
				<g id="shape_10_1_95_">
					<path d="M944.6,550c0-2.982,2.418-5.4,5.4-5.4c2.982,0,5.4,2.418,5.4,5.4c0,2.982-2.418,5.4-5.4,5.4
						C947.018,555.4,944.6,552.982,944.6,550z M945.14,550c0,2.685,2.177,4.86,4.86,4.86s4.86-2.176,4.86-4.86
						c0-2.685-2.177-4.86-4.86-4.86S945.14,547.315,945.14,550z"/>
				</g>
			</g>
			<g transform="translate(950,650) scale(0.1224) rotate(0)">
				<g id="shape_10_1_96_">
					<path d="M943.88,650c0-3.38,2.74-6.12,6.12-6.12c3.38,0,6.12,2.74,6.12,6.12s-2.74,6.12-6.12,6.12
						C946.62,656.12,943.88,653.38,943.88,650z M944.492,650c0,3.042,2.466,5.508,5.508,5.508s5.508-2.466,5.508-5.508
						s-2.466-5.508-5.508-5.508S944.492,646.958,944.492,650z"/>
				</g>
			</g>
			<g transform="translate(950,750) scale(0.1368) rotate(0)">
				<g id="shape_10_1_97_">
					<path d="M943.16,750c0-3.777,3.063-6.84,6.84-6.84c3.777,0,6.84,3.063,6.84,6.84s-3.063,6.84-6.84,6.84
						C946.223,756.84,943.16,753.777,943.16,750z M943.844,750c0,3.399,2.757,6.156,6.156,6.156c3.399,0,6.156-2.757,6.156-6.156
						s-2.757-6.156-6.156-6.156C946.601,743.844,943.844,746.601,943.844,750z"/>
				</g>
			</g>
			<g transform="translate(950,850) scale(0.1512) rotate(0)">
				<g id="shape_10_1_98_">
					<path d="M942.44,850c0-4.175,3.384-7.56,7.56-7.56c4.176,0,7.56,3.385,7.56,7.56s-3.384,7.56-7.56,7.56
						C945.824,857.56,942.44,854.175,942.44,850z M943.196,850c0,3.758,3.046,6.804,6.804,6.804c3.758,0,6.804-3.046,6.804-6.804
						s-3.046-6.804-6.804-6.804C946.242,843.196,943.196,846.242,943.196,850z"/>
				</g>
			</g>
			<g transform="translate(950,950) scale(0.1656) rotate(0)">
				<g id="shape_10_1_99_">
					<path d="M941.72,950c0-4.573,3.707-8.28,8.28-8.28c4.573,0,8.28,3.707,8.28,8.28s-3.707,8.28-8.28,8.28
						C945.427,958.28,941.72,954.573,941.72,950z M942.548,950c0,4.115,3.337,7.452,7.452,7.452c4.115,0,7.452-3.337,7.452-7.452
						s-3.337-7.452-7.452-7.452C945.885,942.548,942.548,945.885,942.548,950z"/>
				</g>
			</g>
			<g transform="translate(0,0) scale(0.06912) rotate(0)">
				<g id="shape_other_10_1">
					<path d="M-3.456,0c0-1.909,1.547-3.456,3.456-3.456S3.456-1.909,3.456,0c0,1.909-1.547,3.456-3.456,3.456S-3.456,1.909-3.456,0
						z"/>
				</g>
			</g>
			<g transform="translate(0,100) scale(0.10368) rotate(0)">
				<g id="shape_other_10_1_1_">
					<path d="M-5.184,100c0-2.863,2.321-5.184,5.184-5.184S5.184,97.137,5.184,100c0,2.863-2.321,5.184-5.184,5.184
						S-5.184,102.863-5.184,100z"/>
				</g>
			</g>
			<g transform="translate(0,200) scale(0.13824) rotate(0)">
				<g id="shape_other_10_1_2_">
					<path d="M-6.912,200c0-3.817,3.095-6.912,6.912-6.912s6.912,3.095,6.912,6.912c0,3.817-3.095,6.912-6.912,6.912
						S-6.912,203.817-6.912,200z"/>
				</g>
			</g>
			<g transform="translate(0,300) scale(0.1728) rotate(0)">
				<g id="shape_other_10_1_3_">
					<path d="M-8.64,300c0-4.771,3.868-8.64,8.64-8.64s8.64,3.869,8.64,8.64c0,4.772-3.868,8.64-8.64,8.64S-8.64,304.772-8.64,300z"
						/>
				</g>
			</g>
			<g transform="translate(0,400) scale(0.20736) rotate(0)">
				<g id="shape_other_10_1_4_">
					<path d="M-10.368,400c0-5.726,4.642-10.368,10.368-10.368S10.368,394.274,10.368,400c0,5.727-4.642,10.368-10.368,10.368
						S-10.368,405.727-10.368,400z"/>
				</g>
			</g>
			<g transform="translate(0,500) scale(0.24192) rotate(0)">
				<g id="shape_other_10_1_5_">
					<path d="M-12.096,500c0-6.681,5.416-12.096,12.096-12.096S12.096,493.319,12.096,500c0,6.681-5.416,12.096-12.096,12.096
						S-12.096,506.681-12.096,500z"/>
				</g>
			</g>
			<g transform="translate(0,600) scale(0.27648) rotate(0)">
				<g id="shape_other_10_1_6_">
					<path d="M-13.824,600c0-7.635,6.189-13.824,13.824-13.824S13.824,592.365,13.824,600c0,7.635-6.189,13.824-13.824,13.824
						S-13.824,607.635-13.824,600z"/>
				</g>
			</g>
			<g transform="translate(0,700) scale(0.31104) rotate(0)">
				<g id="shape_other_10_1_7_">
					<path d="M-15.552,700c0-8.589,6.962-15.552,15.552-15.552S15.552,691.411,15.552,700c0,8.589-6.962,15.552-15.552,15.552
						S-15.552,708.589-15.552,700z"/>
				</g>
			</g>
			<g transform="translate(0,800) scale(0.3456) rotate(0)">
				<g id="shape_other_10_1_8_">
					<path d="M-17.28,800c0-9.544,7.736-17.28,17.28-17.28s17.28,7.736,17.28,17.28S9.543,817.28,0,817.28S-17.28,809.544-17.28,800
						z"/>
				</g>
			</g>
			<g transform="translate(0,900) scale(0.38016) rotate(0)">
				<g id="shape_other_10_1_9_">
					<path d="M-19.008,900c0-10.498,8.51-19.008,19.008-19.008s19.008,8.51,19.008,19.008c0,10.498-8.51,19.008-19.008,19.008
						S-19.008,910.498-19.008,900z"/>
				</g>
			</g>
			<g transform="translate(0,1000) scale(0.41472) rotate(0)">
				<g id="shape_other_10_1_10_">
					<path d="M-20.736,1000c0-11.452,9.284-20.736,20.736-20.736s20.736,9.284,20.736,20.736S11.452,1020.736,0,1020.736
						S-20.736,1011.452-20.736,1000z"/>
				</g>
			</g>
			<g transform="translate(100,0) scale(0.06336) rotate(0)">
				<g id="shape_other_10_1_11_">
					<path d="M96.832,0c0-1.749,1.419-3.168,3.168-3.168s3.168,1.419,3.168,3.168c0,1.75-1.419,3.168-3.168,3.168
						S96.832,1.75,96.832,0z"/>
				</g>
			</g>
			<g transform="translate(100,100) scale(0.09504) rotate(0)">
				<g id="shape_other_10_1_12_">
					<path d="M95.248,100c0-2.624,2.128-4.752,4.752-4.752s4.752,2.128,4.752,4.752c0,2.625-2.128,4.752-4.752,4.752
						S95.248,102.625,95.248,100z"/>
				</g>
			</g>
			<g transform="translate(100,200) scale(0.12672) rotate(0)">
				<g id="shape_other_10_1_13_">
					<path d="M93.664,200c0-3.499,2.836-6.336,6.336-6.336s6.336,2.837,6.336,6.336s-2.836,6.336-6.336,6.336
						S93.664,203.499,93.664,200z"/>
				</g>
			</g>
			<g transform="translate(100,300) scale(0.1584) rotate(0)">
				<g id="shape_other_10_1_14_">
					<path d="M92.08,300c0-4.374,3.546-7.92,7.92-7.92s7.92,3.546,7.92,7.92s-3.546,7.92-7.92,7.92S92.08,304.374,92.08,300z"/>
				</g>
			</g>
			<g transform="translate(100,400) scale(0.19008) rotate(0)">
				<g id="shape_other_10_1_15_">
					<path d="M90.496,400c0-5.249,4.255-9.504,9.504-9.504s9.504,4.255,9.504,9.504s-4.255,9.504-9.504,9.504
						S90.496,405.249,90.496,400z"/>
				</g>
			</g>
			<g transform="translate(100,500) scale(0.22176) rotate(0)">
				<g id="shape_other_10_1_16_">
					<path d="M88.912,500c0-6.124,4.964-11.088,11.088-11.088s11.088,4.964,11.088,11.088s-4.964,11.088-11.088,11.088
						S88.912,506.124,88.912,500z"/>
				</g>
			</g>
			<g transform="translate(100,600) scale(0.25344) rotate(0)">
				<g id="shape_other_10_1_17_">
					<path d="M87.328,600c0-6.999,5.673-12.672,12.672-12.672s12.672,5.673,12.672,12.672s-5.673,12.672-12.672,12.672
						S87.328,606.999,87.328,600z"/>
				</g>
			</g>
			<g transform="translate(100,700) scale(0.28512) rotate(0)">
				<g id="shape_other_10_1_18_">
					<path d="M85.744,700c0-7.873,6.382-14.256,14.256-14.256s14.256,6.383,14.256,14.256s-6.382,14.256-14.256,14.256
						S85.744,707.873,85.744,700z"/>
				</g>
			</g>
			<g transform="translate(100,800) scale(0.3168) rotate(0)">
				<g id="shape_other_10_1_19_">
					<path d="M84.16,800c0-8.748,7.092-15.84,15.84-15.84s15.84,7.092,15.84,15.84s-7.092,15.84-15.84,15.84
						S84.16,808.748,84.16,800z"/>
				</g>
			</g>
			<g transform="translate(100,900) scale(0.34848) rotate(0)">
				<g id="shape_other_10_1_20_">
					<path d="M82.576,900c0-9.623,7.801-17.424,17.424-17.424s17.424,7.801,17.424,17.424c0,9.623-7.801,17.424-17.424,17.424
						S82.576,909.623,82.576,900z"/>
				</g>
			</g>
			<g transform="translate(100,1000) scale(0.38016) rotate(0)">
				<g id="shape_other_10_1_21_">
					<path d="M80.992,1000c0-10.498,8.51-19.008,19.008-19.008s19.008,8.51,19.008,19.008s-8.51,19.008-19.008,19.008
						S80.992,1010.498,80.992,1000z"/>
				</g>
			</g>
			<g transform="translate(200,0) scale(0.0576) rotate(0)">
				<g id="shape_other_10_1_22_">
					<path d="M197.12,0c0-1.591,1.289-2.88,2.88-2.88s2.88,1.289,2.88,2.88c0,1.591-1.289,2.88-2.88,2.88S197.12,1.591,197.12,0z"/>
				</g>
			</g>
			<g transform="translate(200,100) scale(0.0864) rotate(0)">
				<g id="shape_other_10_1_23_">
					<path d="M195.68,100c0-2.386,1.934-4.32,4.32-4.32s4.32,1.934,4.32,4.32c0,2.386-1.934,4.32-4.32,4.32
						S195.68,102.386,195.68,100z"/>
				</g>
			</g>
			<g transform="translate(200,200) scale(0.1152) rotate(0)">
				<g id="shape_other_10_1_24_">
					<path d="M194.24,200c0-3.181,2.579-5.76,5.76-5.76s5.76,2.579,5.76,5.76c0,3.181-2.579,5.76-5.76,5.76
						S194.24,203.181,194.24,200z"/>
				</g>
			</g>
			<g transform="translate(200,300) scale(0.144) rotate(0)">
				<g id="shape_other_10_1_25_">
					<path d="M192.8,300c0-3.977,3.224-7.2,7.2-7.2s7.2,3.224,7.2,7.2c0,3.977-3.224,7.2-7.2,7.2S192.8,303.977,192.8,300z"/>
				</g>
			</g>
			<g transform="translate(200,400) scale(0.1728) rotate(0)">
				<g id="shape_other_10_1_26_">
					<path d="M191.36,400c0-4.771,3.868-8.64,8.64-8.64c4.772,0,8.64,3.869,8.64,8.64c0,4.772-3.868,8.64-8.64,8.64
						C195.228,408.64,191.36,404.772,191.36,400z"/>
				</g>
			</g>
			<g transform="translate(200,500) scale(0.2016) rotate(0)">
				<g id="shape_other_10_1_27_">
					<path d="M189.92,500c0-5.567,4.513-10.08,10.08-10.08s10.08,4.513,10.08,10.08c0,5.567-4.513,10.08-10.08,10.08
						S189.92,505.567,189.92,500z"/>
				</g>
			</g>
			<g transform="translate(200,600) scale(0.2304) rotate(0)">
				<g id="shape_other_10_1_28_">
					<path d="M188.48,600c0-6.362,5.158-11.519,11.52-11.519s11.52,5.157,11.52,11.519s-5.158,11.52-11.52,11.52
						S188.48,606.362,188.48,600z"/>
				</g>
			</g>
			<g transform="translate(200,700) scale(0.2592) rotate(0)">
				<g id="shape_other_10_1_29_">
					<path d="M187.04,700c0-7.157,5.802-12.96,12.96-12.96c7.158,0,12.96,5.803,12.96,12.96c0,7.157-5.802,12.96-12.96,12.96
						C192.842,712.96,187.04,707.157,187.04,700z"/>
				</g>
			</g>
			<g transform="translate(200,800) scale(0.288) rotate(0)">
				<g id="shape_other_10_1_30_">
					<path d="M185.6,800c0-7.953,6.447-14.4,14.4-14.4c7.953,0,14.4,6.447,14.4,14.4s-6.447,14.4-14.4,14.4
						C192.047,814.4,185.6,807.953,185.6,800z"/>
				</g>
			</g>
			<g transform="translate(200,900) scale(0.3168) rotate(0)">
				<g id="shape_other_10_1_31_">
					<path d="M184.16,900c0-8.748,7.092-15.84,15.84-15.84c8.748,0,15.84,7.092,15.84,15.84c0,8.748-7.092,15.84-15.84,15.84
						C191.252,915.84,184.16,908.748,184.16,900z"/>
				</g>
			</g>
			<g transform="translate(200,1000) scale(0.3456) rotate(0)">
				<g id="shape_other_10_1_32_">
					<path d="M182.72,1000c0-9.544,7.736-17.28,17.28-17.28c9.544,0,17.28,7.736,17.28,17.28s-7.736,17.28-17.28,17.28
						C190.457,1017.28,182.72,1009.544,182.72,1000z"/>
				</g>
			</g>
			<g transform="translate(300,0) scale(0.05184) rotate(0)">
				<g id="shape_other_10_1_33_">
					<path d="M297.408,0c0-1.432,1.16-2.592,2.592-2.592s2.592,1.16,2.592,2.592c0,1.432-1.16,2.592-2.592,2.592
						S297.408,1.432,297.408,0z"/>
				</g>
			</g>
			<g transform="translate(300,100) scale(0.07776) rotate(0)">
				<g id="shape_other_10_1_34_">
					<path d="M296.112,100c0-2.147,1.741-3.888,3.888-3.888s3.888,1.741,3.888,3.888c0,2.148-1.741,3.888-3.888,3.888
						S296.112,102.148,296.112,100z"/>
				</g>
			</g>
			<g transform="translate(300,200) scale(0.10368) rotate(0)">
				<g id="shape_other_10_1_35_">
					<path d="M294.816,200c0-2.863,2.321-5.184,5.184-5.184s5.184,2.321,5.184,5.184c0,2.863-2.321,5.184-5.184,5.184
						S294.816,202.863,294.816,200z"/>
				</g>
			</g>
			<g transform="translate(300,300) scale(0.1296) rotate(0)">
				<g id="shape_other_10_1_36_">
					<path d="M293.52,300c0-3.579,2.901-6.48,6.48-6.48c3.579,0,6.48,2.901,6.48,6.48c0,3.579-2.902,6.48-6.48,6.48
						C296.421,306.48,293.52,303.579,293.52,300z"/>
				</g>
			</g>
			<g transform="translate(300,400) scale(0.15552) rotate(0)">
				<g id="shape_other_10_1_37_">
					<path d="M292.224,400c0-4.294,3.482-7.776,7.776-7.776s7.776,3.482,7.776,7.776c0,4.295-3.482,7.776-7.776,7.776
						S292.224,404.295,292.224,400z"/>
				</g>
			</g>
			<g transform="translate(300,500) scale(0.18144) rotate(0)">
				<g id="shape_other_10_1_38_">
					<path d="M290.928,500c0-5.011,4.061-9.072,9.072-9.072c5.01,0,9.072,4.062,9.072,9.072c0,5.011-4.062,9.072-9.072,9.072
						C294.99,509.072,290.928,505.011,290.928,500z"/>
				</g>
			</g>
			<g transform="translate(300,600) scale(0.20736) rotate(0)">
				<g id="shape_other_10_1_39_">
					<path d="M289.632,600c0-5.727,4.642-10.368,10.368-10.368s10.368,4.642,10.368,10.368c0,5.727-4.642,10.368-10.368,10.368
						S289.632,605.727,289.632,600z"/>
				</g>
			</g>
			<g transform="translate(300,700) scale(0.23328) rotate(0)">
				<g id="shape_other_10_1_40_">
					<path d="M288.336,700c0-6.441,5.222-11.664,11.664-11.664c6.441,0,11.664,5.223,11.664,11.664s-5.223,11.664-11.664,11.664
						C293.558,711.664,288.336,706.441,288.336,700z"/>
				</g>
			</g>
			<g transform="translate(300,800) scale(0.2592) rotate(0)">
				<g id="shape_other_10_1_41_">
					<path d="M287.04,800c0-7.157,5.802-12.96,12.96-12.96c7.157,0,12.96,5.803,12.96,12.96s-5.803,12.96-12.96,12.96
						C292.842,812.96,287.04,807.157,287.04,800z"/>
				</g>
			</g>
			<g transform="translate(300,900) scale(0.28512) rotate(0)">
				<g id="shape_other_10_1_42_">
					<path d="M285.744,900c0-7.873,6.382-14.256,14.256-14.256c7.873,0,14.256,6.383,14.256,14.256
						c0,7.873-6.383,14.256-14.256,14.256C292.126,914.256,285.744,907.873,285.744,900z"/>
				</g>
			</g>
			<g transform="translate(300,1000) scale(0.31104) rotate(0)">
				<g id="shape_other_10_1_43_">
					<path d="M284.448,1000c0-8.589,6.962-15.552,15.552-15.552c8.589,0,15.552,6.963,15.552,15.552s-6.963,15.552-15.552,15.552
						C291.411,1015.552,284.448,1008.589,284.448,1000z"/>
				</g>
			</g>
			<g transform="translate(400,0) scale(0.04608) rotate(0)">
				<g id="shape_other_10_1_44_">
					<path d="M397.696,0c0-1.272,1.031-2.304,2.304-2.304s2.304,1.032,2.304,2.304c0,1.273-1.031,2.304-2.304,2.304
						S397.696,1.273,397.696,0z"/>
				</g>
			</g>
			<g transform="translate(400,100) scale(0.06912) rotate(0)">
				<g id="shape_other_10_1_45_">
					<path d="M396.544,100c0-1.909,1.548-3.456,3.456-3.456s3.456,1.547,3.456,3.456c0,1.909-1.548,3.456-3.456,3.456
						S396.544,101.909,396.544,100z"/>
				</g>
			</g>
			<g transform="translate(400,200) scale(0.09216) rotate(0)">
				<g id="shape_other_10_1_46_">
					<path d="M395.392,200c0-2.545,2.064-4.608,4.608-4.608s4.608,2.063,4.608,4.608c0,2.545-2.064,4.608-4.608,4.608
						S395.392,202.545,395.392,200z"/>
				</g>
			</g>
			<g transform="translate(400,300) scale(0.1152) rotate(0)">
				<g id="shape_other_10_1_47_">
					<path d="M394.24,300c0-3.181,2.578-5.76,5.76-5.76c3.182,0,5.76,2.579,5.76,5.76c0,3.181-2.578,5.76-5.76,5.76
						C396.818,305.76,394.24,303.181,394.24,300z"/>
				</g>
			</g>
			<g transform="translate(400,400) scale(0.13824) rotate(0)">
				<g id="shape_other_10_1_48_">
					<path d="M393.088,400c0-3.817,3.095-6.912,6.912-6.912c3.817,0,6.912,3.095,6.912,6.912c0,3.817-3.095,6.912-6.912,6.912
						C396.183,406.912,393.088,403.817,393.088,400z"/>
				</g>
			</g>
			<g transform="translate(400,500) scale(0.16128) rotate(0)">
				<g id="shape_other_10_1_49_">
					<path d="M391.935,500c0-4.453,3.611-8.064,8.065-8.064s8.064,3.611,8.064,8.064c0,4.453-3.611,8.065-8.064,8.065
						S391.935,504.453,391.935,500z"/>
				</g>
			</g>
			<g transform="translate(400,600) scale(0.18432) rotate(0)">
				<g id="shape_other_10_1_50_">
					<path d="M390.784,600c0-5.09,4.126-9.216,9.216-9.216c5.09,0,9.216,4.126,9.216,9.216s-4.126,9.216-9.216,9.216
						C394.91,609.216,390.784,605.09,390.784,600z"/>
				</g>
			</g>
			<g transform="translate(400,700) scale(0.20736) rotate(0)">
				<g id="shape_other_10_1_51_">
					<path d="M389.632,700c0-5.727,4.642-10.368,10.368-10.368s10.368,4.642,10.368,10.368s-4.642,10.368-10.368,10.368
						S389.632,705.727,389.632,700z"/>
				</g>
			</g>
			<g transform="translate(400,800) scale(0.2304) rotate(0)">
				<g id="shape_other_10_1_52_">
					<path d="M388.48,800c0-6.362,5.157-11.519,11.52-11.519s11.52,5.157,11.52,11.519s-5.157,11.519-11.52,11.519
						S388.48,806.362,388.48,800z"/>
				</g>
			</g>
			<g transform="translate(400,900) scale(0.25344) rotate(0)">
				<g id="shape_other_10_1_53_">
					<path d="M387.328,900c0-6.999,5.673-12.672,12.672-12.672s12.672,5.673,12.672,12.672s-5.673,12.672-12.672,12.672
						S387.328,906.999,387.328,900z"/>
				</g>
			</g>
			<g transform="translate(400,1000) scale(0.27648) rotate(0)">
				<g id="shape_other_10_1_54_">
					<path d="M386.176,1000c0-7.635,6.189-13.824,13.824-13.824s13.824,6.189,13.824,13.824s-6.189,13.824-13.824,13.824
						S386.176,1007.635,386.176,1000z"/>
				</g>
			</g>
			<g transform="translate(500,0) scale(0.04032) rotate(0)">
				<g id="shape_other_10_1_55_">
					<path d="M497.984,0c0-1.113,0.902-2.016,2.016-2.016c1.113,0,2.016,0.903,2.016,2.016c0,1.113-0.902,2.016-2.016,2.016
						C498.887,2.016,497.984,1.113,497.984,0z"/>
				</g>
			</g>
			<g transform="translate(500,100) scale(0.06048) rotate(0)">
				<g id="shape_other_10_1_56_">
					<path d="M496.976,100c0-1.67,1.354-3.024,3.024-3.024c1.67,0,3.024,1.354,3.024,3.024c0,1.67-1.354,3.024-3.024,3.024
						C498.33,103.024,496.976,101.67,496.976,100z"/>
				</g>
			</g>
			<g transform="translate(500,200) scale(0.08064) rotate(0)">
				<g id="shape_other_10_1_57_">
					<path d="M495.968,200c0-2.227,1.806-4.032,4.032-4.032s4.032,1.806,4.032,4.032c0,2.227-1.806,4.032-4.032,4.032
						S495.968,202.227,495.968,200z"/>
				</g>
			</g>
			<g transform="translate(500,300) scale(0.1008) rotate(0)">
				<g id="shape_other_10_1_58_">
					<path d="M494.96,300c0-2.784,2.257-5.04,5.04-5.04s5.04,2.256,5.04,5.04c0,2.784-2.257,5.04-5.04,5.04
						S494.96,302.784,494.96,300z"/>
				</g>
			</g>
			<g transform="translate(500,400) scale(0.12096) rotate(0)">
				<g id="shape_other_10_1_59_">
					<path d="M493.952,400c0-3.34,2.708-6.048,6.048-6.048c3.34,0,6.048,2.708,6.048,6.048c0,3.34-2.708,6.048-6.048,6.048
						C496.66,406.048,493.952,403.34,493.952,400z"/>
				</g>
			</g>
			<g transform="translate(500,500) scale(0.14112) rotate(0)">
				<g id="shape_other_10_1_60_">
					<path d="M492.944,500c0-3.896,3.159-7.056,7.056-7.056c3.896,0,7.056,3.159,7.056,7.056c0,3.897-3.159,7.056-7.056,7.056
						C496.103,507.056,492.944,503.897,492.944,500z"/>
				</g>
			</g>
			<g transform="translate(500,600) scale(0.16128) rotate(0)">
				<g id="shape_other_10_1_61_">
					<path d="M491.935,600c0-4.454,3.611-8.065,8.065-8.065s8.064,3.61,8.064,8.065s-3.611,8.065-8.064,8.065
						S491.935,604.454,491.935,600z"/>
				</g>
			</g>
			<g transform="translate(500,700) scale(0.18144) rotate(0)">
				<g id="shape_other_10_1_62_">
					<path d="M490.928,700c0-5.011,4.062-9.072,9.072-9.072c5.011,0,9.072,4.062,9.072,9.072s-4.062,9.072-9.072,9.072
						C494.989,709.072,490.928,705.011,490.928,700z"/>
				</g>
			</g>
			<g transform="translate(500,800) scale(0.2016) rotate(0)">
				<g id="shape_other_10_1_63_">
					<path d="M489.92,800c0-5.567,4.513-10.08,10.08-10.08c5.567,0,10.08,4.513,10.08,10.08s-4.513,10.08-10.08,10.08
						C494.433,810.08,489.92,805.567,489.92,800z"/>
				</g>
			</g>
			<g transform="translate(500,900) scale(0.22176) rotate(0)">
				<g id="shape_other_10_1_64_">
					<path d="M488.912,900c0-6.124,4.964-11.088,11.088-11.088s11.088,4.964,11.088,11.088s-4.964,11.088-11.088,11.088
						S488.912,906.124,488.912,900z"/>
				</g>
			</g>
			<g transform="translate(500,1000) scale(0.24192) rotate(0)">
				<g id="shape_other_10_1_65_">
					<path d="M487.904,1000c0-6.681,5.415-12.096,12.096-12.096s12.096,5.415,12.096,12.096s-5.415,12.096-12.096,12.096
						S487.904,1006.681,487.904,1000z"/>
				</g>
			</g>
			<g transform="translate(600,0) scale(0.03456) rotate(0)">
				<g id="shape_other_10_1_66_">
					<path d="M598.271,0c0-0.954,0.774-1.728,1.729-1.728s1.729,0.774,1.729,1.728c0,0.954-0.774,1.728-1.729,1.728
						S598.271,0.954,598.271,0z"/>
				</g>
			</g>
			<g transform="translate(600,100) scale(0.05184) rotate(0)">
				<g id="shape_other_10_1_67_">
					<path d="M597.408,100c0-1.432,1.16-2.592,2.592-2.592c1.432,0,2.592,1.16,2.592,2.592c0,1.432-1.16,2.592-2.592,2.592
						C598.568,102.592,597.408,101.432,597.408,100z"/>
				</g>
			</g>
			<g transform="translate(600,200) scale(0.06912) rotate(0)">
				<g id="shape_other_10_1_68_">
					<path d="M596.544,200c0-1.909,1.548-3.456,3.456-3.456s3.456,1.547,3.456,3.456c0,1.909-1.548,3.456-3.456,3.456
						S596.544,201.909,596.544,200z"/>
				</g>
			</g>
			<g transform="translate(600,300) scale(0.0864) rotate(0)">
				<g id="shape_other_10_1_69_">
					<path d="M595.68,300c0-2.386,1.935-4.32,4.32-4.32s4.32,1.934,4.32,4.32c0,2.386-1.935,4.32-4.32,4.32
						S595.68,302.386,595.68,300z"/>
				</g>
			</g>
			<g transform="translate(600,400) scale(0.10368) rotate(0)">
				<g id="shape_other_10_1_70_">
					<path d="M594.816,400c0-2.863,2.32-5.184,5.184-5.184s5.184,2.321,5.184,5.184c0,2.863-2.32,5.184-5.184,5.184
						S594.816,402.863,594.816,400z"/>
				</g>
			</g>
			<g transform="translate(600,500) scale(0.12096) rotate(0)">
				<g id="shape_other_10_1_71_">
					<path d="M593.952,500c0-3.34,2.708-6.048,6.048-6.048s6.048,2.708,6.048,6.048c0,3.34-2.708,6.048-6.048,6.048
						S593.952,503.34,593.952,500z"/>
				</g>
			</g>
			<g transform="translate(600,600) scale(0.13824) rotate(0)">
				<g id="shape_other_10_1_72_">
					<path d="M593.088,600c0-3.817,3.095-6.912,6.912-6.912s6.912,3.095,6.912,6.912s-3.095,6.912-6.912,6.912
						S593.088,603.817,593.088,600z"/>
				</g>
			</g>
			<g transform="translate(600,700) scale(0.15552) rotate(0)">
				<g id="shape_other_10_1_73_">
					<path d="M592.224,700c0-4.295,3.482-7.776,7.776-7.776c4.295,0,7.776,3.481,7.776,7.776s-3.482,7.776-7.776,7.776
						C595.705,707.776,592.224,704.295,592.224,700z"/>
				</g>
			</g>
			<g transform="translate(600,800) scale(0.1728) rotate(0)">
				<g id="shape_other_10_1_74_">
					<path d="M591.36,800c0-4.771,3.868-8.64,8.64-8.64s8.64,3.868,8.64,8.64s-3.868,8.64-8.64,8.64S591.36,804.771,591.36,800z"/>
				</g>
			</g>
			<g transform="translate(600,900) scale(0.19008) rotate(0)">
				<g id="shape_other_10_1_75_">
					<path d="M590.496,900c0-5.249,4.255-9.504,9.504-9.504s9.504,4.255,9.504,9.504s-4.255,9.504-9.504,9.504
						S590.496,905.249,590.496,900z"/>
				</g>
			</g>
			<g transform="translate(600,1000) scale(0.20736) rotate(0)">
				<g id="shape_other_10_1_76_">
					<path d="M589.632,1000c0-5.727,4.642-10.368,10.368-10.368c5.727,0,10.368,4.642,10.368,10.368s-4.642,10.368-10.368,10.368
						C594.273,1010.368,589.632,1005.727,589.632,1000z"/>
				</g>
			</g>
			<g transform="translate(700,0) scale(0.0288) rotate(0)">
				<g id="shape_other_10_1_77_">
					<path d="M698.56,0c0-0.795,0.646-1.44,1.44-1.44c0.795,0,1.44,0.644,1.44,1.44c0,0.795-0.646,1.44-1.44,1.44
						C699.205,1.44,698.56,0.795,698.56,0z"/>
				</g>
			</g>
			<g transform="translate(700,100) scale(0.0432) rotate(0)">
				<g id="shape_other_10_1_78_">
					<path d="M697.84,100c0-1.193,0.967-2.16,2.16-2.16c1.193,0,2.16,0.967,2.16,2.16c0,1.193-0.967,2.16-2.16,2.16
						C698.807,102.16,697.84,101.193,697.84,100z"/>
				</g>
			</g>
			<g transform="translate(700,200) scale(0.0576) rotate(0)">
				<g id="shape_other_10_1_79_">
					<path d="M697.12,200c0-1.591,1.289-2.88,2.88-2.88c1.591,0,2.88,1.289,2.88,2.88c0,1.591-1.289,2.88-2.88,2.88
						C698.409,202.88,697.12,201.591,697.12,200z"/>
				</g>
			</g>
			<g transform="translate(700,300) scale(0.072) rotate(0)">
				<g id="shape_other_10_1_80_">
					<path d="M696.4,300c0-1.988,1.611-3.6,3.6-3.6c1.988,0,3.6,1.612,3.6,3.6c0,1.988-1.611,3.6-3.6,3.6
						C698.012,303.6,696.4,301.988,696.4,300z"/>
				</g>
			</g>
			<g transform="translate(700,400) scale(0.0864) rotate(0)">
				<g id="shape_other_10_1_81_">
					<path d="M695.68,400c0-2.386,1.935-4.32,4.32-4.32c2.386,0,4.32,1.934,4.32,4.32c0,2.386-1.935,4.32-4.32,4.32
						C697.614,404.32,695.68,402.386,695.68,400z"/>
				</g>
			</g>
			<g transform="translate(700,500) scale(0.1008) rotate(0)">
				<g id="shape_other_10_1_82_">
					<path d="M694.96,500c0-2.783,2.257-5.04,5.04-5.04s5.04,2.257,5.04,5.04s-2.257,5.04-5.04,5.04S694.96,502.783,694.96,500z"/>
				</g>
			</g>
			<g transform="translate(700,600) scale(0.1152) rotate(0)">
				<g id="shape_other_10_1_83_">
					<path d="M694.24,600c0-3.182,2.578-5.76,5.76-5.76c3.182,0,5.76,2.578,5.76,5.76s-2.578,5.76-5.76,5.76
						C696.818,605.76,694.24,603.182,694.24,600z"/>
				</g>
			</g>
			<g transform="translate(700,700) scale(0.1296) rotate(0)">
				<g id="shape_other_10_1_84_">
					<path d="M693.519,700c0-3.579,2.901-6.48,6.481-6.48s6.48,2.901,6.48,6.48s-2.901,6.481-6.48,6.481
						S693.519,703.579,693.519,700z"/>
				</g>
			</g>
			<g transform="translate(700,800) scale(0.144) rotate(0)">
				<g id="shape_other_10_1_85_">
					<path d="M692.8,800c0-3.977,3.224-7.2,7.2-7.2c3.977,0,7.2,3.224,7.2,7.2s-3.224,7.2-7.2,7.2
						C696.023,807.2,692.8,803.977,692.8,800z"/>
				</g>
			</g>
			<g transform="translate(700,900) scale(0.1584) rotate(0)">
				<g id="shape_other_10_1_86_">
					<path d="M692.08,900c0-4.374,3.546-7.92,7.92-7.92s7.92,3.546,7.92,7.92s-3.546,7.92-7.92,7.92S692.08,904.374,692.08,900z"/>
				</g>
			</g>
			<g transform="translate(700,1000) scale(0.1728) rotate(0)">
				<g id="shape_other_10_1_87_">
					<path d="M691.36,1000c0-4.771,3.868-8.64,8.64-8.64s8.64,3.868,8.64,8.64s-3.868,8.64-8.64,8.64S691.36,1004.771,691.36,1000z"
						/>
				</g>
			</g>
			<g transform="translate(800,0) scale(0.02304) rotate(0)">
				<g id="shape_other_10_1_88_">
					<path d="M798.848,0c0-0.636,0.516-1.152,1.152-1.152c0.637,0,1.152,0.516,1.152,1.152c0,0.636-0.516,1.152-1.152,1.152
						C799.363,1.152,798.848,0.636,798.848,0z"/>
				</g>
			</g>
			<g transform="translate(800,100) scale(0.03456) rotate(0)">
				<g id="shape_other_10_1_89_">
					<path d="M798.271,100c0-0.954,0.774-1.728,1.729-1.728s1.728,0.774,1.728,1.728c0,0.954-0.774,1.728-1.728,1.728
						S798.271,100.954,798.271,100z"/>
				</g>
			</g>
			<g transform="translate(800,200) scale(0.04608) rotate(0)">
				<g id="shape_other_10_1_90_">
					<path d="M797.696,200c0-1.272,1.031-2.304,2.304-2.304c1.272,0,2.304,1.032,2.304,2.304c0,1.273-1.031,2.304-2.304,2.304
						C798.727,202.304,797.696,201.273,797.696,200z"/>
				</g>
			</g>
			<g transform="translate(800,300) scale(0.0576) rotate(0)">
				<g id="shape_other_10_1_91_">
					<path d="M797.12,300c0-1.591,1.289-2.88,2.88-2.88c1.591,0,2.88,1.289,2.88,2.88c0,1.591-1.289,2.88-2.88,2.88
						C798.409,302.88,797.12,301.591,797.12,300z"/>
				</g>
			</g>
			<g transform="translate(800,400) scale(0.06912) rotate(0)">
				<g id="shape_other_10_1_92_">
					<path d="M796.544,400c0-1.908,1.548-3.456,3.456-3.456s3.456,1.548,3.456,3.456c0,1.908-1.548,3.456-3.456,3.456
						S796.544,401.908,796.544,400z"/>
				</g>
			</g>
			<g transform="translate(800,500) scale(0.08064) rotate(0)">
				<g id="shape_other_10_1_93_">
					<path d="M795.968,500c0-2.227,1.806-4.032,4.032-4.032c2.227,0,4.032,1.806,4.032,4.032c0,2.227-1.806,4.032-4.032,4.032
						C797.773,504.032,795.968,502.227,795.968,500z"/>
				</g>
			</g>
			<g transform="translate(800,600) scale(0.09216) rotate(0)">
				<g id="shape_other_10_1_94_">
					<path d="M795.392,600c0-2.545,2.063-4.608,4.608-4.608c2.545,0,4.608,2.063,4.608,4.608s-2.064,4.608-4.608,4.608
						C797.455,604.608,795.392,602.545,795.392,600z"/>
				</g>
			</g>
			<g transform="translate(800,700) scale(0.10368) rotate(0)">
				<g id="shape_other_10_1_95_">
					<path d="M794.816,700c0-2.863,2.32-5.184,5.184-5.184c2.863,0,5.184,2.32,5.184,5.184s-2.32,5.184-5.184,5.184
						C797.137,705.184,794.816,702.863,794.816,700z"/>
				</g>
			</g>
			<g transform="translate(800,800) scale(0.1152) rotate(0)">
				<g id="shape_other_10_1_96_">
					<path d="M794.24,800c0-3.182,2.578-5.76,5.76-5.76c3.182,0,5.76,2.578,5.76,5.76s-2.578,5.76-5.76,5.76
						C796.818,805.76,794.24,803.182,794.24,800z"/>
				</g>
			</g>
			<g transform="translate(800,900) scale(0.12672) rotate(0)">
				<g id="shape_other_10_1_97_">
					<path d="M793.664,900c0-3.499,2.837-6.336,6.336-6.336s6.336,2.837,6.336,6.336s-2.837,6.336-6.336,6.336
						S793.664,903.499,793.664,900z"/>
				</g>
			</g>
			<g transform="translate(800,1000) scale(0.13824) rotate(0)">
				<g id="shape_other_10_1_98_">
					<path d="M793.088,1000c0-3.817,3.095-6.912,6.912-6.912c3.817,0,6.912,3.095,6.912,6.912s-3.095,6.912-6.912,6.912
						C796.183,1006.912,793.088,1003.817,793.088,1000z"/>
				</g>
			</g>
			<g transform="translate(900,0) scale(0.01728) rotate(0)">
				<g id="shape_other_10_1_99_">
					<path d="M899.136,0c0-0.477,0.387-0.864,0.864-0.864c0.477,0,0.864,0.387,0.864,0.864c0,0.477-0.387,0.864-0.864,0.864
						C899.522,0.864,899.136,0.477,899.136,0z"/>
				</g>
			</g>
			<g transform="translate(900,100) scale(0.02592) rotate(0)">
				<g id="shape_other_10_1_100_">
					<path d="M898.704,100c0-0.716,0.58-1.296,1.296-1.296c0.716,0,1.296,0.58,1.296,1.296c0,0.716-0.58,1.296-1.296,1.296
						C899.284,101.296,898.704,100.716,898.704,100z"/>
				</g>
			</g>
			<g transform="translate(900,200) scale(0.03456) rotate(0)">
				<g id="shape_other_10_1_101_">
					<path d="M898.271,200c0-0.954,0.774-1.728,1.729-1.728s1.728,0.774,1.728,1.728c0,0.954-0.774,1.728-1.728,1.728
						S898.271,200.954,898.271,200z"/>
				</g>
			</g>
			<g transform="translate(900,300) scale(0.0432) rotate(0)">
				<g id="shape_other_10_1_102_">
					<path d="M897.84,300c0-1.193,0.967-2.16,2.16-2.16c1.193,0,2.16,0.967,2.16,2.16c0,1.193-0.967,2.16-2.16,2.16
						C898.807,302.16,897.84,301.193,897.84,300z"/>
				</g>
			</g>
			<g transform="translate(900,400) scale(0.05184) rotate(0)">
				<g id="shape_other_10_1_103_">
					<path d="M897.408,400c0-1.432,1.16-2.592,2.592-2.592c1.432,0,2.592,1.16,2.592,2.592c0,1.432-1.16,2.592-2.592,2.592
						C898.568,402.592,897.408,401.432,897.408,400z"/>
				</g>
			</g>
			<g transform="translate(900,500) scale(0.06048) rotate(0)">
				<g id="shape_other_10_1_104_">
					<path d="M896.976,500c0-1.67,1.354-3.024,3.024-3.024c1.67,0,3.024,1.354,3.024,3.024c0,1.67-1.354,3.024-3.024,3.024
						C898.33,503.024,896.976,501.67,896.976,500z"/>
				</g>
			</g>
			<g transform="translate(900,600) scale(0.06912) rotate(0)">
				<g id="shape_other_10_1_105_">
					<path d="M896.544,600c0-1.908,1.548-3.456,3.456-3.456s3.456,1.548,3.456,3.456s-1.548,3.456-3.456,3.456
						S896.544,601.908,896.544,600z"/>
				</g>
			</g>
			<g transform="translate(900,700) scale(0.07776) rotate(0)">
				<g id="shape_other_10_1_106_">
					<path d="M896.112,700c0-2.148,1.74-3.888,3.888-3.888c2.147,0,3.888,1.74,3.888,3.888s-1.74,3.888-3.888,3.888
						C897.852,703.888,896.112,702.148,896.112,700z"/>
				</g>
			</g>
			<g transform="translate(900,800) scale(0.0864) rotate(0)">
				<g id="shape_other_10_1_107_">
					<path d="M895.68,800c0-2.386,1.935-4.32,4.32-4.32c2.386,0,4.32,1.935,4.32,4.32s-1.935,4.32-4.32,4.32
						C897.614,804.32,895.68,802.386,895.68,800z"/>
				</g>
			</g>
			<g transform="translate(900,900) scale(0.09504) rotate(0)">
				<g id="shape_other_10_1_108_">
					<path d="M895.248,900c0-2.624,2.128-4.752,4.752-4.752s4.752,2.128,4.752,4.752s-2.128,4.752-4.752,4.752
						S895.248,902.624,895.248,900z"/>
				</g>
			</g>
			<g transform="translate(900,1000) scale(0.10368) rotate(0)">
				<g id="shape_other_10_1_109_">
					<path d="M894.816,1000c0-2.863,2.32-5.184,5.184-5.184c2.863,0,5.184,2.32,5.184,5.184s-2.32,5.184-5.184,5.184
						C897.137,1005.184,894.816,1002.863,894.816,1000z"/>
				</g>
			</g>
			<g transform="translate(1000,0) scale(0.01152) rotate(0)">
				<g id="shape_other_10_1_110_">
					<path d="M999.424,0c0-0.318,0.258-0.576,0.576-0.576c0.318,0,0.576,0.258,0.576,0.576c0,0.318-0.258,0.576-0.576,0.576
						C999.682,0.576,999.424,0.318,999.424,0z"/>
				</g>
			</g>
			<g transform="translate(1000,100) scale(0.01728) rotate(0)">
				<g id="shape_other_10_1_111_">
					<path d="M999.136,100c0-0.477,0.387-0.864,0.864-0.864c0.477,0,0.864,0.387,0.864,0.864c0,0.477-0.387,0.864-0.864,0.864
						C999.522,100.864,999.136,100.477,999.136,100z"/>
				</g>
			</g>
			<g transform="translate(1000,200) scale(0.02304) rotate(0)">
				<g id="shape_other_10_1_112_">
					<path d="M998.848,200c0-0.636,0.516-1.152,1.152-1.152c0.637,0,1.152,0.516,1.152,1.152c0,0.636-0.516,1.152-1.152,1.152
						C999.363,201.152,998.848,200.636,998.848,200z"/>
				</g>
			</g>
			<g transform="translate(1000,300) scale(0.0288) rotate(0)">
				<g id="shape_other_10_1_113_">
					<path d="M998.56,300c0-0.795,0.646-1.44,1.44-1.44c0.795,0,1.44,0.645,1.44,1.44c0,0.795-0.646,1.44-1.44,1.44
						C999.205,301.44,998.56,300.795,998.56,300z"/>
				</g>
			</g>
			<g transform="translate(1000,400) scale(0.03456) rotate(0)">
				<g id="shape_other_10_1_114_">
					<path d="M998.271,400c0-0.954,0.774-1.727,1.729-1.727s1.728,0.773,1.728,1.727s-0.774,1.728-1.728,1.728
						S998.271,400.954,998.271,400z"/>
				</g>
			</g>
			<g transform="translate(1000,500) scale(0.04032) rotate(0)">
				<g id="shape_other_10_1_115_">
					<path d="M997.984,500c0-1.113,0.902-2.016,2.016-2.016c1.113,0,2.016,0.902,2.016,2.016c0,1.113-0.902,2.016-2.016,2.016
						C998.887,502.016,997.984,501.113,997.984,500z"/>
				</g>
			</g>
			<g transform="translate(1000,600) scale(0.04608) rotate(0)">
				<g id="shape_other_10_1_116_">
					<path d="M997.696,600c0-1.273,1.031-2.304,2.304-2.304c1.272,0,2.304,1.031,2.304,2.304s-1.031,2.304-2.304,2.304
						C998.727,602.304,997.696,601.273,997.696,600z"/>
				</g>
			</g>
			<g transform="translate(1000,700) scale(0.05184) rotate(0)">
				<g id="shape_other_10_1_117_">
					<path d="M997.408,700c0-1.432,1.16-2.592,2.592-2.592c1.432,0,2.592,1.16,2.592,2.592s-1.16,2.592-2.592,2.592
						C998.568,702.592,997.408,701.432,997.408,700z"/>
				</g>
			</g>
			<g transform="translate(1000,800) scale(0.0576) rotate(0)">
				<g id="shape_other_10_1_118_">
					<path d="M997.12,800c0-1.591,1.289-2.88,2.88-2.88c1.591,0,2.88,1.289,2.88,2.88s-1.289,2.88-2.88,2.88
						C998.409,802.88,997.12,801.591,997.12,800z"/>
				</g>
			</g>
			<g transform="translate(1000,900) scale(0.06336) rotate(0)">
				<g id="shape_other_10_1_119_">
					<path d="M996.832,900c0-1.75,1.418-3.168,3.168-3.168s3.168,1.418,3.168,3.168s-1.418,3.168-3.168,3.168
						S996.832,901.75,996.832,900z"/>
				</g>
			</g>
			<g transform="scale(1) ">
				<g id="shape_other_10_1_120_">
					<path d="M996.544,1000c0-1.908,1.548-3.456,3.456-3.456s3.456,1.548,3.456,3.456s-1.548,3.456-3.456,3.456
						S996.544,1001.908,996.544,1000z"/>
				</g>
			</g>
		</g>
	</g>
</g>
</svg>
