<svg xmlns="http://www.w3.org/2000/svg" xmlns:xlink="http://www.w3.org/1999/xlink" width="250" zoomAndPan="magnify" viewBox="0 0 375 374.999991" height="250" preserveAspectRatio="xMidYMid meet" version="1.0"><defs><g/><clipPath id="41a86744c7"><path d="M 41.050781 195.714844 L 235.714844 195.714844 L 235.714844 196.441406 L 41.050781 196.441406 Z M 41.050781 195.714844 " clip-rule="nonzero"/></clipPath><clipPath id="5a1c8d4417"><path d="M 41.050781 201.015625 L 235.714844 201.015625 L 235.714844 201.742188 L 41.050781 201.742188 Z M 41.050781 201.015625 " clip-rule="nonzero"/></clipPath><clipPath id="5a7e0f8b8e"><path d="M 41.050781 197.820312 L 235.714844 197.820312 L 235.714844 199.636719 L 41.050781 199.636719 Z M 41.050781 197.820312 " clip-rule="nonzero"/></clipPath></defs><rect x="-37.5" width="450" fill="#ffffff" y="-37.499999" height="449.999989" fill-opacity="1"/><rect x="-37.5" width="450" fill="#ffffff" y="-37.499999" height="449.999989" fill-opacity="1"/><rect x="-37.5" width="450" fill="#121212" y="-37.499999" height="449.999989" fill-opacity="1"/><g clip-path="url(#41a86744c7)"><path fill="#1ed5c3" d="M 41.050781 195.714844 L 235.660156 195.714844 L 235.660156 201.703125 L 41.050781 201.703125 Z M 41.050781 195.714844 " fill-opacity="1" fill-rule="nonzero"/></g><g clip-path="url(#5a1c8d4417)"><path fill="#ff0000" d="M 41.050781 195.714844 L 235.660156 195.714844 L 235.660156 201.703125 L 41.050781 201.703125 Z M 41.050781 195.714844 " fill-opacity="1" fill-rule="nonzero"/></g><g clip-path="url(#5a7e0f8b8e)"><path fill="#ffffff" d="M 41.050781 195.714844 L 235.660156 195.714844 L 235.660156 201.703125 L 41.050781 201.703125 Z M 41.050781 195.714844 " fill-opacity="1" fill-rule="nonzero"/></g><g fill="#ffffff" fill-opacity="1"><g transform="translate(236.081158, 201.54122)"><g><path d="M 5.375 0 L 4.5625 -3.8125 L 4.53125 -3.8125 L 3.71875 0 L 1.515625 0 L 0.046875 -6.25 L 2.140625 -6.25 L 2.859375 -2.703125 L 2.890625 -2.703125 L 3.59375 -6.25 L 5.578125 -6.25 L 6.34375 -2.703125 L 6.375 -2.703125 L 7.046875 -6.25 L 9.046875 -6.25 L 7.578125 0 Z M 5.375 0 "/></g></g></g><g fill="#ffffff" fill-opacity="1"><g transform="translate(245.165229, 201.54122)"><g><path d="M 0.671875 -6.25 L 6.078125 -6.25 L 6.078125 -4.75 L 2.6875 -4.75 L 2.6875 -3.890625 L 5.59375 -3.890625 L 5.59375 -2.453125 L 2.6875 -2.453125 L 2.6875 -1.5 L 6.140625 -1.5 L 6.140625 0 L 0.671875 0 Z M 0.671875 -6.25 "/></g></g></g><g fill="#ffffff" fill-opacity="1"><g transform="translate(251.723926, 201.54122)"><g><path d="M 4.84375 -6.25 C 5.15625 -6.25 5.441406 -6.179688 5.703125 -6.046875 C 5.972656 -5.921875 6.179688 -5.738281 6.328125 -5.5 C 6.484375 -5.269531 6.5625 -5.007812 6.5625 -4.71875 C 6.5625 -3.945312 6.210938 -3.460938 5.515625 -3.265625 L 5.515625 -3.234375 C 6.316406 -3.046875 6.71875 -2.523438 6.71875 -1.671875 C 6.71875 -1.335938 6.632812 -1.046875 6.46875 -0.796875 C 6.3125 -0.546875 6.09375 -0.347656 5.8125 -0.203125 C 5.53125 -0.0664062 5.222656 0 4.890625 0 L 0.671875 0 L 0.671875 -6.25 Z M 2.6875 -3.8125 L 4.0625 -3.8125 C 4.195312 -3.8125 4.304688 -3.859375 4.390625 -3.953125 C 4.484375 -4.046875 4.53125 -4.164062 4.53125 -4.3125 L 4.53125 -4.40625 C 4.53125 -4.53125 4.484375 -4.640625 4.390625 -4.734375 C 4.296875 -4.835938 4.1875 -4.890625 4.0625 -4.890625 L 2.6875 -4.890625 Z M 2.6875 -1.453125 L 4.203125 -1.453125 C 4.335938 -1.453125 4.445312 -1.5 4.53125 -1.59375 C 4.625 -1.6875 4.671875 -1.804688 4.671875 -1.953125 L 4.671875 -2.03125 C 4.671875 -2.175781 4.625 -2.296875 4.53125 -2.390625 C 4.445312 -2.484375 4.335938 -2.53125 4.203125 -2.53125 L 2.6875 -2.53125 Z M 2.6875 -1.453125 "/></g></g></g><g fill="#ffffff" fill-opacity="1"><g transform="translate(258.79133, 201.54122)"><g/></g></g><g fill="#ffffff" fill-opacity="1"><g transform="translate(261.816323, 201.54122)"><g><path d="M 1.421875 0.4375 L -0.015625 -6.6875 L 1.078125 -6.6875 L 2.53125 0.4375 Z M 1.421875 0.4375 "/></g></g></g><g fill="#ffffff" fill-opacity="1"><g transform="translate(264.341696, 201.54122)"><g/></g></g><g fill="#ffffff" fill-opacity="1"><g transform="translate(267.366689, 201.54122)"><g><path d="M 2.375 0 L 0.15625 -6.25 L 2.296875 -6.25 L 3.5625 -2.078125 L 3.59375 -2.078125 L 4.859375 -6.25 L 6.90625 -6.25 L 4.703125 0 Z M 2.375 0 "/></g></g></g><g fill="#ffffff" fill-opacity="1"><g transform="translate(274.434093, 201.54122)"><g><path d="M 0.765625 0 L 0.765625 -6.25 L 2.78125 -6.25 L 2.78125 0 Z M 0.765625 0 "/></g></g></g><g fill="#ffffff" fill-opacity="1"><g transform="translate(277.967797, 201.54122)"><g><path d="M 3.390625 -6.25 C 5.578125 -6.25 6.671875 -5.207031 6.671875 -3.125 C 6.671875 -1.039062 5.578125 0 3.390625 0 L 0.671875 0 L 0.671875 -6.25 Z M 2.6875 -1.5 L 3.34375 -1.5 C 4.1875 -1.5 4.609375 -1.953125 4.609375 -2.859375 L 4.609375 -3.40625 C 4.609375 -4.300781 4.1875 -4.75 3.34375 -4.75 L 2.6875 -4.75 Z M 2.6875 -1.5 "/></g></g></g><g fill="#ffffff" fill-opacity="1"><g transform="translate(285.035201, 201.54122)"><g><path d="M 0.671875 -6.25 L 6.078125 -6.25 L 6.078125 -4.75 L 2.6875 -4.75 L 2.6875 -3.890625 L 5.59375 -3.890625 L 5.59375 -2.453125 L 2.6875 -2.453125 L 2.6875 -1.5 L 6.140625 -1.5 L 6.140625 0 L 0.671875 0 Z M 0.671875 -6.25 "/></g></g></g><g fill="#ffffff" fill-opacity="1"><g transform="translate(291.593898, 201.54122)"><g><path d="M 3.78125 -6.359375 C 4.863281 -6.359375 5.695312 -6.082031 6.28125 -5.53125 C 6.875 -4.976562 7.171875 -4.175781 7.171875 -3.125 C 7.171875 -2.070312 6.875 -1.269531 6.28125 -0.71875 C 5.695312 -0.164062 4.863281 0.109375 3.78125 0.109375 C 2.707031 0.109375 1.875 -0.160156 1.28125 -0.703125 C 0.695312 -1.253906 0.40625 -2.0625 0.40625 -3.125 C 0.40625 -4.1875 0.695312 -4.988281 1.28125 -5.53125 C 1.875 -6.082031 2.707031 -6.359375 3.78125 -6.359375 Z M 3.78125 -4.859375 C 3.351562 -4.859375 3.023438 -4.726562 2.796875 -4.46875 C 2.578125 -4.207031 2.46875 -3.859375 2.46875 -3.421875 L 2.46875 -2.84375 C 2.46875 -2.394531 2.578125 -2.039062 2.796875 -1.78125 C 3.023438 -1.519531 3.351562 -1.390625 3.78125 -1.390625 C 4.207031 -1.390625 4.535156 -1.519531 4.765625 -1.78125 C 4.992188 -2.039062 5.109375 -2.394531 5.109375 -2.84375 L 5.109375 -3.421875 C 5.109375 -3.859375 4.992188 -4.207031 4.765625 -4.46875 C 4.535156 -4.726562 4.207031 -4.859375 3.78125 -4.859375 Z M 3.78125 -4.859375 "/></g></g></g><g fill="#ffffff" fill-opacity="1"><g transform="translate(299.160926, 201.54122)"><g/></g></g><g fill="#ffffff" fill-opacity="1"><g transform="translate(302.185919, 201.54122)"><g><path d="M 1.421875 0.4375 L -0.015625 -6.6875 L 1.078125 -6.6875 L 2.53125 0.4375 Z M 1.421875 0.4375 "/></g></g></g><g fill="#ffffff" fill-opacity="1"><g transform="translate(304.710956, 201.54122)"><g/></g></g><g fill="#ffffff" fill-opacity="1"><g transform="translate(307.73595, 201.54122)"><g/></g></g><g fill="#ffffff" fill-opacity="1"><g transform="translate(310.759641, 201.54122)"><g><path d="M 4.28125 -4.65625 L 4.28125 0 L 2.265625 0 L 2.265625 -4.65625 L 0.203125 -4.65625 L 0.203125 -6.25 L 6.3125 -6.25 L 6.3125 -4.65625 Z M 4.28125 -4.65625 "/></g></g></g><g fill="#ffffff" fill-opacity="1"><g transform="translate(317.318338, 201.54122)"><g><path d="M 0.671875 -6.25 L 6.078125 -6.25 L 6.078125 -4.75 L 2.6875 -4.75 L 2.6875 -3.890625 L 5.59375 -3.890625 L 5.59375 -2.453125 L 2.6875 -2.453125 L 2.6875 -1.5 L 6.140625 -1.5 L 6.140625 0 L 0.671875 0 Z M 0.671875 -6.25 "/></g></g></g><g fill="#ffffff" fill-opacity="1"><g transform="translate(323.877035, 201.54122)"><g><path d="M 7.078125 0 L 4.640625 0 L 3.484375 -1.953125 L 3.453125 -1.953125 L 2.296875 0 L 0.03125 0 L 2.28125 -3.3125 L 0.25 -6.25 L 2.6875 -6.25 L 3.625 -4.65625 L 3.671875 -4.65625 L 4.625 -6.25 L 6.859375 -6.25 L 4.84375 -3.296875 Z M 7.078125 0 "/></g></g></g><g fill="#ffffff" fill-opacity="1"><g transform="translate(330.944439, 201.54122)"><g><path d="M 4.28125 -4.65625 L 4.28125 0 L 2.265625 0 L 2.265625 -4.65625 L 0.203125 -4.65625 L 0.203125 -6.25 L 6.3125 -6.25 L 6.3125 -4.65625 Z M 4.28125 -4.65625 "/></g></g></g><g fill="#ff00ff" fill-opacity="1"><g transform="translate(98.578516, 171.512641)"><g><path d="M 26.4375 -10.8125 L 23.921875 -10.53125 L 27.3125 -3.59375 L 26.484375 -1.9375 L 19.015625 0 L 13.640625 -9.84375 L 11.25 -9.75 L 10.8125 -0.96875 L 0.96875 -0.140625 L 0.96875 -38.90625 L 26.390625 -37.359375 L 28.28125 -35.46875 L 28.328125 -14.0625 Z M 18.09375 -18.96875 L 18.140625 -29.84375 L 11.734375 -30.46875 L 11.5 -18.484375 Z M 18.09375 -18.96875 "/></g></g></g><g fill="#ff00ff" fill-opacity="1"><g transform="translate(127.881946, 171.512641)"><g><path d="M 28.375 -26.390625 L 28.71875 0 L 22.078125 0.046875 L 21.0625 -1.65625 L 19.9375 0 L 4.609375 -0.140625 L 0.96875 -2.8125 L 1.84375 -15.421875 L 4.65625 -17.375 L 18.234375 -17.609375 L 18.390625 -20.90625 L 11.5 -21.390625 L 10.671875 -19.59375 L 1.796875 -20.1875 L 1.3125 -23.671875 L 3.828125 -27.9375 L 25.171875 -28.234375 Z M 18.578125 -7.5625 L 18.53125 -12.03125 L 11.296875 -11.9375 L 11.59375 -7.859375 Z M 18.578125 -7.5625 "/></g></g></g><g fill="#ff00ff" fill-opacity="1"><g transform="translate(157.573503, 171.512641)"><g><path d="M 28.625 -38.8125 L 28.921875 -0.046875 L 22.75 0 L 21.6875 -1.546875 L 20.46875 -0.1875 L 5.046875 0 L 1.546875 -3.78125 L 0.96875 -24.59375 L 3.984375 -28.375 L 18.484375 -27.265625 L 18.78125 -38.28125 Z M 18.4375 -8.296875 L 18.34375 -18.96875 L 11.890625 -19.21875 L 11.296875 -8.484375 Z M 18.4375 -8.296875 "/></g></g></g><g fill="#ff00ff" fill-opacity="1"><g transform="translate(187.459117, 171.512641)"><g><path d="M 24.6875 -38.5625 L 35.03125 -38.8125 L 33.71875 -2.140625 L 31.875 0.140625 L 23.34375 0.046875 L 17.90625 -6.9375 L 12.609375 0.09375 L 3.5 0 L 1.796875 -2.375 L 1.796875 -2.71875 L 0.96875 -38.8125 L 10.921875 -38.515625 L 12.46875 -12.859375 L 17.75 -19.65625 L 23 -12.8125 Z M 24.6875 -38.5625 "/></g></g></g><g fill="#ff00ff" fill-opacity="1"><g transform="translate(223.457707, 171.512641)"><g><path d="M 23.921875 -8.78125 L 24.453125 -0.09375 L 0.96875 -0.09375 L 0.96875 -38.90625 L 23.671875 -38.1875 L 23.390625 -29.296875 L 10.921875 -29.453125 L 10.921875 -24.59375 L 18.96875 -24.109375 L 18.96875 -15.671875 L 10.875 -16.15625 L 10.8125 -9.515625 Z M 23.921875 -8.78125 "/></g></g></g><g fill="#ff00ff" fill-opacity="1"><g transform="translate(248.879885, 171.512641)"><g><path d="M 25.421875 -19.21875 L 27.9375 -16.5 L 27.703125 -3.203125 L 24.203125 -0.484375 L 0.96875 0.09375 L 1.3125 -38.625 L 23.390625 -37.5 L 26.203125 -33.90625 L 26.78125 -20.90625 Z M 17.46875 -22.953125 L 17.171875 -30.125 L 10.625 -31.140625 L 10.765625 -23.921875 Z M 18.53125 -15.71875 L 10.875 -16.984375 L 10.8125 -7.8125 L 18.1875 -8.96875 Z M 18.53125 -15.71875 "/></g></g></g><g fill="#00ffff" fill-opacity="1"><g transform="translate(95.603879, 174.191019)"><g><path d="M 26.4375 -10.8125 L 23.921875 -10.53125 L 27.3125 -3.59375 L 26.484375 -1.9375 L 19.015625 0 L 13.640625 -9.84375 L 11.25 -9.75 L 10.8125 -0.96875 L 0.96875 -0.140625 L 0.96875 -38.90625 L 26.390625 -37.359375 L 28.28125 -35.46875 L 28.328125 -14.0625 Z M 18.09375 -18.96875 L 18.140625 -29.84375 L 11.734375 -30.46875 L 11.5 -18.484375 Z M 18.09375 -18.96875 "/></g></g></g><g fill="#00ffff" fill-opacity="1"><g transform="translate(124.907309, 174.191019)"><g><path d="M 28.375 -26.390625 L 28.71875 0 L 22.078125 0.046875 L 21.0625 -1.65625 L 19.9375 0 L 4.609375 -0.140625 L 0.96875 -2.8125 L 1.84375 -15.421875 L 4.65625 -17.375 L 18.234375 -17.609375 L 18.390625 -20.90625 L 11.5 -21.390625 L 10.671875 -19.59375 L 1.796875 -20.1875 L 1.3125 -23.671875 L 3.828125 -27.9375 L 25.171875 -28.234375 Z M 18.578125 -7.5625 L 18.53125 -12.03125 L 11.296875 -11.9375 L 11.59375 -7.859375 Z M 18.578125 -7.5625 "/></g></g></g><g fill="#00ffff" fill-opacity="1"><g transform="translate(154.598866, 174.191019)"><g><path d="M 28.625 -38.8125 L 28.921875 -0.046875 L 22.75 0 L 21.6875 -1.546875 L 20.46875 -0.1875 L 5.046875 0 L 1.546875 -3.78125 L 0.96875 -24.59375 L 3.984375 -28.375 L 18.484375 -27.265625 L 18.78125 -38.28125 Z M 18.4375 -8.296875 L 18.34375 -18.96875 L 11.890625 -19.21875 L 11.296875 -8.484375 Z M 18.4375 -8.296875 "/></g></g></g><g fill="#00ffff" fill-opacity="1"><g transform="translate(184.48448, 174.191019)"><g><path d="M 24.6875 -38.5625 L 35.03125 -38.8125 L 33.71875 -2.140625 L 31.875 0.140625 L 23.34375 0.046875 L 17.90625 -6.9375 L 12.609375 0.09375 L 3.5 0 L 1.796875 -2.375 L 1.796875 -2.71875 L 0.96875 -38.8125 L 10.921875 -38.515625 L 12.46875 -12.859375 L 17.75 -19.65625 L 23 -12.8125 Z M 24.6875 -38.5625 "/></g></g></g><g fill="#00ffff" fill-opacity="1"><g transform="translate(220.48307, 174.191019)"><g><path d="M 23.921875 -8.78125 L 24.453125 -0.09375 L 0.96875 -0.09375 L 0.96875 -38.90625 L 23.671875 -38.1875 L 23.390625 -29.296875 L 10.921875 -29.453125 L 10.921875 -24.59375 L 18.96875 -24.109375 L 18.96875 -15.671875 L 10.875 -16.15625 L 10.8125 -9.515625 Z M 23.921875 -8.78125 "/></g></g></g><g fill="#00ffff" fill-opacity="1"><g transform="translate(245.905248, 174.191019)"><g><path d="M 25.421875 -19.21875 L 27.9375 -16.5 L 27.703125 -3.203125 L 24.203125 -0.484375 L 0.96875 0.09375 L 1.3125 -38.625 L 23.390625 -37.5 L 26.203125 -33.90625 L 26.78125 -20.90625 Z M 17.46875 -22.953125 L 17.171875 -30.125 L 10.625 -31.140625 L 10.765625 -23.921875 Z M 18.53125 -15.71875 L 10.875 -16.984375 L 10.8125 -7.8125 L 18.1875 -8.96875 Z M 18.53125 -15.71875 "/></g></g></g><g fill="#ffffff" fill-opacity="1"><g transform="translate(97.091197, 172.851829)"><g><path d="M 26.4375 -10.8125 L 23.921875 -10.53125 L 27.3125 -3.59375 L 26.484375 -1.9375 L 19.015625 0 L 13.640625 -9.84375 L 11.25 -9.75 L 10.8125 -0.96875 L 0.96875 -0.140625 L 0.96875 -38.90625 L 26.390625 -37.359375 L 28.28125 -35.46875 L 28.328125 -14.0625 Z M 18.09375 -18.96875 L 18.140625 -29.84375 L 11.734375 -30.46875 L 11.5 -18.484375 Z M 18.09375 -18.96875 "/></g></g></g><g fill="#ffffff" fill-opacity="1"><g transform="translate(126.394628, 172.851829)"><g><path d="M 28.375 -26.390625 L 28.71875 0 L 22.078125 0.046875 L 21.0625 -1.65625 L 19.9375 0 L 4.609375 -0.140625 L 0.96875 -2.8125 L 1.84375 -15.421875 L 4.65625 -17.375 L 18.234375 -17.609375 L 18.390625 -20.90625 L 11.5 -21.390625 L 10.671875 -19.59375 L 1.796875 -20.1875 L 1.3125 -23.671875 L 3.828125 -27.9375 L 25.171875 -28.234375 Z M 18.578125 -7.5625 L 18.53125 -12.03125 L 11.296875 -11.9375 L 11.59375 -7.859375 Z M 18.578125 -7.5625 "/></g></g></g><g fill="#ffffff" fill-opacity="1"><g transform="translate(156.086185, 172.851829)"><g><path d="M 28.625 -38.8125 L 28.921875 -0.046875 L 22.75 0 L 21.6875 -1.546875 L 20.46875 -0.1875 L 5.046875 0 L 1.546875 -3.78125 L 0.96875 -24.59375 L 3.984375 -28.375 L 18.484375 -27.265625 L 18.78125 -38.28125 Z M 18.4375 -8.296875 L 18.34375 -18.96875 L 11.890625 -19.21875 L 11.296875 -8.484375 Z M 18.4375 -8.296875 "/></g></g></g><g fill="#ffffff" fill-opacity="1"><g transform="translate(185.971799, 172.851829)"><g><path d="M 24.6875 -38.5625 L 35.03125 -38.8125 L 33.71875 -2.140625 L 31.875 0.140625 L 23.34375 0.046875 L 17.90625 -6.9375 L 12.609375 0.09375 L 3.5 0 L 1.796875 -2.375 L 1.796875 -2.71875 L 0.96875 -38.8125 L 10.921875 -38.515625 L 12.46875 -12.859375 L 17.75 -19.65625 L 23 -12.8125 Z M 24.6875 -38.5625 "/></g></g></g><g fill="#ffffff" fill-opacity="1"><g transform="translate(221.970388, 172.851829)"><g><path d="M 23.921875 -8.78125 L 24.453125 -0.09375 L 0.96875 -0.09375 L 0.96875 -38.90625 L 23.671875 -38.1875 L 23.390625 -29.296875 L 10.921875 -29.453125 L 10.921875 -24.59375 L 18.96875 -24.109375 L 18.96875 -15.671875 L 10.875 -16.15625 L 10.8125 -9.515625 Z M 23.921875 -8.78125 "/></g></g></g><g fill="#ffffff" fill-opacity="1"><g transform="translate(247.392567, 172.851829)"><g><path d="M 25.421875 -19.21875 L 27.9375 -16.5 L 27.703125 -3.203125 L 24.203125 -0.484375 L 0.96875 0.09375 L 1.3125 -38.625 L 23.390625 -37.5 L 26.203125 -33.90625 L 26.78125 -20.90625 Z M 17.46875 -22.953125 L 17.171875 -30.125 L 10.625 -31.140625 L 10.765625 -23.921875 Z M 18.53125 -15.71875 L 10.875 -16.984375 L 10.8125 -7.8125 L 18.1875 -8.96875 Z M 18.53125 -15.71875 "/></g></g></g></svg>