<svg xmlns="http://www.w3.org/2000/svg" width="355.817" height="355.817"><path d="M355.817 355.817c-10.563 0-15.984-3.058-21.127-5.977s-9.312-5.143-18.347-5.143S302.722 347.2 298 349.84s-10.563 5.977-21.127 5.977-15.984-3.058-21.127-5.977-9.315-5.14-18.346-5.14-13.621 2.5-18.347 5.143-10.563 5.977-21.127 5.977-15.984-3.058-21.127-5.977-9.312-5.143-18.347-5.143-13.621 2.5-18.347 5.143-10.841 5.977-21.544 5.977-15.984-3.058-21.127-5.977-9.175-5.143-18.348-5.143-13.621 2.5-18.347 5.143-10.563 5.977-21.266 5.977-15.984-3.058-21.127-5.977S9.173 344.7 0 344.7v-5.56c10.563 0 15.984 3.058 21.127 5.977s9.312 5.143 18.347 5.143 13.621-2.5 18.347-5.143 10.563-5.977 21.127-5.977 15.984 3.058 21.127 5.977 9.312 5.143 18.347 5.143 13.621-2.5 18.347-5.143 10.563-5.977 21.127-5.977 15.984 3.058 21.127 5.977 9.312 5.143 18.347 5.143 13.621-2.5 18.347-5.143 10.563-5.977 21.127-5.977 15.984 3.058 21.127 5.977 9.312 5.143 18.347 5.143 13.621-2.5 18.347-5.143 10.563-5.977 21.127-5.977 15.984 3.058 21.127 5.977 9.312 5.143 18.347 5.143zm0-22.656c-10.563 0-15.984-3.058-21.127-5.977s-9.312-5.143-18.347-5.143-13.621 2.5-18.347 5.143-10.563 5.977-21.127 5.977-15.984-3.058-21.127-5.977-9.312-5.143-18.347-5.143-13.621 2.5-18.347 5.143-10.563 5.977-21.127 5.977-15.984-3.058-21.127-5.977-9.312-5.143-18.347-5.143-13.621 2.5-18.347 5.143-10.563 5.977-21.127 5.977-15.984-3.058-21.127-5.977-9.312-5.143-18.347-5.143-13.621 2.5-18.347 5.143-10.563 5.977-21.127 5.977-15.98-3.061-21.125-5.976-9.727-5.143-18.9-5.143v-5.56c10.563 0 15.984 3.058 21.127 5.977s9.312 5.143 18.347 5.143 13.621-2.5 18.347-5.143 10.563-5.977 21.127-5.977 15.984 3.058 21.127 5.977 9.312 5.143 18.347 5.143 13.621-2.5 18.347-5.143 10.563-5.977 21.127-5.977 15.984 3.058 21.127 5.977 9.312 5.143 18.347 5.143 13.621-2.5 18.347-5.143 10.563-5.977 21.127-5.977 15.984 3.058 21.127 5.977 9.312 5.143 18.347 5.143 13.621-2.5 18.347-5.143 10.563-5.977 21.127-5.977 15.984 3.058 21.127 5.977 9.312 5.143 18.347 5.143zm0-22.656c-10.563 0-15.984-3.058-21.127-5.977s-9.312-5.143-18.347-5.143-13.621 2.5-18.347 5.143-10.563 5.977-21.127 5.977-15.984-3.058-21.127-5.977-9.312-5.143-18.347-5.143-13.621 2.5-18.347 5.143-10.563 5.977-21.127 5.977-15.984-3.058-21.127-5.977-9.312-5.143-18.347-5.143-13.621 2.5-18.347 5.143-10.563 5.977-21.127 5.977-15.984-3.058-21.127-5.977-9.312-5.143-18.347-5.143-13.621 2.5-18.347 5.143-10.563 5.977-21.127 5.977-15.984-3.058-21.127-5.977-9.729-5-18.9-5v-5.56c10.563 0 15.984 3.058 21.127 5.977s9.312 5.143 18.347 5.143 13.621-2.5 18.347-5.143 10.563-5.977 21.127-5.977 15.984 3.058 21.127 5.977 9.312 5.143 18.347 5.143 13.621-2.5 18.347-5.143 10.563-5.977 21.127-5.977 15.984 3.058 21.127 5.977 9.312 5.143 18.347 5.143 13.621-2.5 18.347-5.143 10.563-5.977 21.127-5.977 15.984 3.058 21.127 5.977 9.312 5.143 18.347 5.143 13.621-2.5 18.347-5.143 10.563-5.977 21.127-5.977 15.984 3.058 21.127 5.977 9.312 5.143 18.347 5.143zm0-22.656c-10.563 0-15.984-3.058-21.127-5.977s-9.312-5.143-18.347-5.143-13.621 2.5-18.347 5.143-10.563 5.977-21.127 5.977-15.984-3.058-21.127-5.977-9.312-5.143-18.347-5.143-13.621 2.5-18.347 5.143-10.563 5.977-21.127 5.977-15.984-3.058-21.127-5.977-9.312-5.143-18.347-5.143-13.621 2.5-18.347 5.143-10.563 5.977-21.127 5.977-15.984-3.058-21.127-5.977-9.312-5.143-18.347-5.143-13.621 2.5-18.347 5.143-10.563 5.977-21.127 5.977-16.4-2.919-21.683-5.838S9.173 276.87 0 276.87v-5.56c10.563 0 15.984 3.058 21.127 5.977s9.312 5.143 18.347 5.143 13.621-2.5 18.347-5.143 10.563-5.977 21.127-5.977 15.984 3.058 21.127 5.977 9.312 5.143 18.347 5.143 13.621-2.5 18.347-5.143 10.563-5.977 21.127-5.977 15.984 3.058 21.127 5.977 9.312 5.143 18.347 5.143 13.621-2.5 18.347-5.143 10.563-5.977 21.127-5.977 15.984 3.058 21.127 5.977 9.312 5.143 18.347 5.143 13.621-2.5 18.347-5.143 10.563-5.977 21.127-5.977 15.984 3.058 21.127 5.977 9.312 5.143 18.347 5.143zm0-22.656c-10.563 0-15.984-3.058-21.127-5.977s-9.312-5.143-18.347-5.143-13.621 2.5-18.347 5.143-10.563 5.977-21.127 5.977-15.984-3.058-21.127-5.977-9.312-5.143-18.347-5.143-13.621 2.5-18.347 5.143-10.563 5.977-21.127 5.977-15.984-3.058-21.127-5.977-9.312-5.143-18.347-5.143-13.621 2.5-18.347 5.143-10.563 5.977-21.127 5.977-15.984-3.058-21.127-5.977-9.312-5.143-18.347-5.143-13.621 2.5-18.347 5.143-10.563 5.977-21.127 5.977-15.984-3.058-21.127-5.977-9.729-5-18.9-5v-5.56c10.563 0 15.984 3.058 21.127 5.977s9.312 5.143 18.347 5.143 13.621-2.5 18.347-5.143 10.563-5.977 21.127-5.977 15.984 3.058 21.127 5.977 9.312 5.143 18.347 5.143 13.621-2.5 18.347-5.143 10.563-5.977 21.127-5.977 15.984 3.058 21.127 5.977 9.312 5.143 18.347 5.143 13.621-2.5 18.347-5.143 10.563-5.977 21.127-5.977 15.984 3.058 21.127 5.977 9.312 5.143 18.347 5.143 13.621-2.5 18.347-5.143 10.563-5.977 21.127-5.977 15.984 3.058 21.127 5.977 9.312 5.143 18.347 5.143zm0-22.656c-10.563 0-15.984-3.058-21.127-5.977s-9.312-5.143-18.347-5.143-13.621 2.5-18.347 5.143-10.563 5.977-21.127 5.977-15.984-3.058-21.127-5.977-9.312-5.143-18.347-5.143-13.621 2.5-18.347 5.143-10.563 5.977-21.127 5.977-15.984-3.058-21.127-5.977-9.312-5.143-18.347-5.143-13.621 2.5-18.347 5.143-10.563 5.977-21.127 5.977-15.984-3.058-21.127-5.977-9.309-5.14-18.346-5.14-13.621 2.5-18.347 5.143-10.563 5.977-21.127 5.977-15.984-3.058-21.127-5.977S9.173 231.7 0 231.7v-5.56c10.563 0 15.984 3.058 21.127 5.977s9.312 5.143 18.347 5.143 13.621-2.5 18.347-5.143 10.563-5.977 21.127-5.977 15.984 3.058 21.127 5.977 9.312 5.143 18.347 5.143 13.621-2.5 18.347-5.143 10.563-5.977 21.127-5.977 15.984 3.058 21.127 5.977 9.312 5.143 18.347 5.143 13.621-2.5 18.347-5.143 10.563-5.977 21.127-5.977 15.984 3.058 21.127 5.977 9.312 5.143 18.347 5.143 13.621-2.5 18.347-5.143 10.563-5.977 21.127-5.977 15.984 3.058 21.127 5.977 9.312 5.143 18.347 5.143zm0-22.656c-10.563 0-15.984-3.058-21.127-5.977s-9.312-5.143-18.347-5.143-13.621 2.5-18.347 5.143-10.563 5.977-21.127 5.977-15.984-3.058-21.127-5.977-9.312-5.143-18.347-5.143-13.621 2.5-18.347 5.143-10.563 5.977-21.127 5.977-15.984-3.058-21.127-5.977-9.312-5.143-18.347-5.143-13.621 2.5-18.347 5.143-10.563 5.977-21.127 5.977-15.984-3.058-21.127-5.977-9.312-5.143-18.347-5.143-13.621 2.5-18.347 5.143-10.563 5.977-21.127 5.977-15.984-3.058-21.127-5.977S9.173 209.042 0 209.042v-5.56c10.563 0 15.984 3.058 21.127 5.977s9.312 5.143 18.347 5.143 13.621-2.5 18.347-5.143 10.563-5.977 21.127-5.977 15.984 3.058 21.127 5.977 9.312 5.143 18.347 5.143 13.621-2.5 18.347-5.143 10.563-5.977 21.127-5.977 15.984 3.058 21.127 5.977 9.312 5.143 18.347 5.143 13.621-2.5 18.347-5.143 10.563-5.977 21.127-5.977 15.984 3.058 21.127 5.977 9.312 5.143 18.347 5.143 13.621-2.5 18.347-5.143 10.563-5.977 21.127-5.977 15.984 3.058 21.127 5.977 9.312 5.143 18.347 5.143zm0-22.656c-10.563 0-15.984-3.058-21.127-5.977s-9.312-5.143-18.347-5.143-13.621 2.5-18.347 5.143-10.563 5.977-21.127 5.977-15.984-3.058-21.127-5.977-9.312-5.143-18.347-5.143-13.621 2.5-18.347 5.143-10.563 5.977-21.127 5.977-15.984-3.058-21.127-5.977-9.312-5.143-18.347-5.143-13.621 2.5-18.347 5.143-10.563 5.977-21.127 5.977-15.984-3.058-21.127-5.977-9.312-5.143-18.347-5.143-13.621 2.5-18.347 5.143-10.563 5.977-21.127 5.977-16.4-2.641-21.683-5.56S9.173 186.387 0 186.387v-5.56c10.563 0 15.984 3.058 21.127 5.977s9.312 5.143 18.347 5.143 13.621-2.5 18.347-5.143 10.563-5.977 21.127-5.977 15.984 3.058 21.127 5.977 9.312 5.143 18.347 5.143 13.621-2.5 18.347-5.143 10.563-5.977 21.127-5.977 15.984 3.058 21.127 5.977 9.312 5.143 18.347 5.143 13.621-2.5 18.347-5.143 10.563-5.977 21.127-5.977 15.984 3.058 21.127 5.977 9.312 5.143 18.347 5.143 13.621-2.5 18.347-5.143 10.563-5.977 21.127-5.977 15.984 3.058 21.127 5.977 9.312 5.143 18.347 5.143zm0-22.656c-10.563 0-15.984-3.058-21.127-5.977s-9.312-5.143-18.347-5.143-13.621 2.5-18.347 5.143-10.563 5.977-21.127 5.977-15.984-3.058-21.127-5.977-9.312-5.143-18.347-5.143-13.621 2.5-18.347 5.143-10.563 5.977-21.127 5.977-15.984-3.058-21.127-5.977-9.312-5.143-18.347-5.143-13.621 2.5-18.347 5.143-10.563 5.977-21.127 5.977-15.984-3.058-21.127-5.977-9.312-5.143-18.347-5.143-13.621 2.5-18.347 5.143-10.563 5.977-21.127 5.977-15.98-3.054-21.125-5.969-9.727-4.73-18.9-4.73v-5.56c10.563 0 15.984 3.058 21.127 5.977s9.312 5.143 18.347 5.143 13.621-2.5 18.347-5.143 10.563-5.977 21.127-5.977 15.984 3.058 21.127 5.977 9.312 5.143 18.347 5.143 13.621-2.5 18.347-5.143 10.563-5.977 21.127-5.977 15.984 3.058 21.127 5.977 9.312 5.143 18.347 5.143 13.621-2.5 18.347-5.143 10.563-5.977 21.127-5.977 15.984 3.058 21.127 5.977 9.312 5.143 18.347 5.143 13.621-2.5 18.347-5.143 10.563-5.977 21.127-5.977 15.984 3.058 21.127 5.977 9.312 5.143 18.347 5.143zm0-22.656c-10.563 0-15.984-3.058-21.127-5.977s-9.312-5.143-18.347-5.143S302.722 143.3 298 145.94s-10.563 5.977-21.127 5.977-15.984-3.058-21.127-5.977-9.315-5.14-18.346-5.14-13.621 2.5-18.347 5.143-10.563 5.977-21.127 5.977-15.984-3.058-21.127-5.977-9.312-5.143-18.347-5.143-13.621 2.5-18.347 5.143-10.563 5.977-21.127 5.977-15.984-3.058-21.127-5.977S88.537 140.8 79.5 140.8s-13.621 2.5-18.347 5.143-10.563 5.977-21.127 5.977-15.981-3.061-21.126-5.98-9.727-4.725-18.9-4.725v-5.56c10.563 0 15.984 3.058 21.127 5.977s9.312 5.143 18.347 5.143 13.621-2.5 18.347-5.143 10.563-5.977 21.127-5.977 15.984 3.058 21.127 5.977 9.312 5.143 18.347 5.143 13.621-2.5 18.347-5.143 10.563-5.977 21.127-5.977 15.984 3.058 21.127 5.977 9.312 5.143 18.347 5.143 13.621-2.5 18.347-5.143 10.563-5.977 21.127-5.977 15.984 3.058 21.127 5.977 9.312 5.143 18.347 5.143 13.621-2.5 18.347-5.143 10.563-5.977 21.127-5.977 15.984 3.058 21.127 5.977 9.312 5.143 18.347 5.143zm0-22.656c-10.563 0-15.984-3.058-21.127-5.977s-9.312-5.143-18.347-5.143-13.621 2.5-18.347 5.143-10.563 5.977-21.127 5.977-15.984-3.058-21.127-5.977-9.312-5.143-18.347-5.143-13.621 2.5-18.347 5.143-10.563 5.977-21.127 5.977-15.984-3.058-21.127-5.977-9.312-5.143-18.347-5.143-13.621 2.5-18.347 5.143-10.841 6.394-21.544 6.394-15.984-3.058-21.127-5.977-9.312-5.143-18.347-5.143-13.621 2.5-18.347 5.143-10.563 5.977-21.127 5.977-15.984-2.919-21.266-5.838S9.173 118.559 0 118.559V113c10.563 0 15.984 3.058 21.127 5.977s9.312 5.143 18.347 5.143 13.621-2.5 18.347-5.143S68.384 113 78.947 113s15.984 3.058 21.127 5.977 9.312 5.143 18.347 5.143 13.621-2.5 18.347-5.143S147.33 113 157.894 113s15.984 3.058 21.127 5.977 9.312 5.143 18.347 5.143 13.621-2.5 18.347-5.143S226.277 113 236.841 113s15.984 3.058 21.127 5.977 9.312 5.143 18.347 5.143 13.621-2.5 18.347-5.143S305.224 113 315.787 113s15.984 3.058 21.127 5.977 9.312 5.143 18.347 5.143zm0-22.656c-10.563 0-15.984-3.058-21.127-5.977s-9.312-5.143-18.347-5.143-13.621 2.5-18.347 5.143-10.563 5.977-21.127 5.977-15.984-3.058-21.127-5.977-9.312-5.143-18.347-5.143-13.621 2.5-18.347 5.143-10.563 5.977-21.127 5.977-15.984-3.058-21.127-5.977-9.312-5.143-18.347-5.143-13.621 2.5-18.347 5.143-10.841 6.533-21.544 6.533-15.984-3.058-21.127-5.977-9.312-5.143-18.347-5.143-13.621 2.5-18.347 5.143-10.563 5.977-21.127 5.977-15.984-3.058-21.266-5.977S9.173 96.043 0 96.043v-5.56c10.563 0 15.984 3.058 21.127 5.977s9.312 5.143 18.347 5.143S53.095 99.1 57.82 96.46s10.563-5.977 21.127-5.977 15.984 3.058 21.127 5.977 9.312 5.143 18.347 5.143 13.621-2.5 18.347-5.143 10.563-5.977 21.127-5.977 15.984 3.058 21.127 5.977 9.312 5.143 18.347 5.143 13.621-2.5 18.347-5.143 10.563-5.977 21.127-5.977 15.984 3.058 21.127 5.977 9.312 5.143 18.347 5.143 13.621-2.5 18.347-5.143 10.563-5.977 21.127-5.977 15.984 3.058 21.127 5.977 9.312 5.143 18.347 5.143zm0-22.656c-10.563 0-15.984-3.058-21.127-5.977s-9.312-5.143-18.347-5.143-13.621 2.5-18.347 5.143-10.563 5.977-21.127 5.977-15.984-3.058-21.127-5.977-9.312-5.143-18.347-5.143-13.621 2.5-18.347 5.143-10.563 5.977-21.127 5.977-15.984-3.058-21.127-5.977-9.312-5.143-18.347-5.143-13.621 2.5-18.347 5.143-10.841 6.533-21.544 6.533-15.984-3.058-21.127-5.977-9.312-5.143-18.347-5.143-13.621 2.5-18.347 5.143-10.563 5.977-21.127 5.977-15.98-3.052-21.261-5.971S9.173 73.387 0 73.387v-5.56c10.563 0 15.984 3.058 21.127 5.977s9.312 5.143 18.347 5.143 13.621-2.5 18.347-5.143 10.563-5.977 21.127-5.977 16.122 3.058 21.264 5.973 9.312 5.143 18.347 5.143 13.621-2.5 18.347-5.143 10.563-5.977 21.127-5.977 15.984 3.062 21.267 5.977 9.312 5.143 18.347 5.143 13.621-2.5 18.347-5.143 10.563-5.977 21.127-5.977 15.979 3.062 21.124 5.977 9.312 5.143 18.347 5.143 13.621-2.5 18.347-5.143 10.563-5.977 21.127-5.977 16.123 3.058 21.4 5.977 9.312 5.143 18.347 5.143zm0-22.656c-10.563 0-15.984-3.058-21.127-5.977s-9.312-5.143-18.347-5.143-13.621 2.5-18.347 5.143-10.563 5.977-21.127 5.977-15.984-3.058-21.127-5.977-9.312-5.143-18.347-5.143-13.621 2.5-18.347 5.143-10.563 5.977-21.127 5.977-15.984-3.058-21.127-5.977-9.312-5.143-18.347-5.143-13.621 2.5-18.347 5.143-10.841 6.533-21.544 6.533-15.984-3.058-21.127-5.977-9.312-5.143-18.347-5.143-13.621 2.5-18.347 5.143-10.563 5.977-21.127 5.977-15.984-2.919-21.266-5.838S9.173 50.732 0 50.732v-5.56c10.563 0 15.984 3.058 21.127 5.977s9.312 5.143 18.347 5.143 13.621-2.5 18.347-5.143 10.563-5.977 21.127-5.977 15.984 3.058 21.127 5.977 9.312 5.143 18.347 5.143 13.621-2.5 18.347-5.143 10.563-5.977 21.127-5.977 15.984 3.058 21.127 5.977 9.312 5.143 18.347 5.143 13.621-2.5 18.347-5.143 10.563-5.977 21.127-5.977 15.984 3.058 21.127 5.977 9.312 5.143 18.347 5.143 13.621-2.5 18.347-5.143 10.563-5.977 21.127-5.977 15.984 3.058 21.127 5.977 9.312 5.143 18.347 5.143zm0-22.656c-10.563 0-15.984-3.058-21.127-5.977s-9.312-5.143-18.347-5.143-13.621 2.5-18.347 5.143-10.563 5.977-21.127 5.977-15.984-3.058-21.127-5.977-9.311-5.136-18.342-5.136-13.621 2.5-18.347 5.143-10.563 5.977-21.127 5.977-16.262-2.363-21.4-5.282-9.312-5.143-18.347-5.143-13.621 2.5-18.347 5.143-10.563 5.977-21.266 5.977-15.984-3.058-21.127-5.977-9.312-5.143-18.347-5.143-13.621 2.5-18.486 5.143-10.563 5.977-21.127 5.977-15.845-3.058-21.127-5.977S9.173 28.215 0 28.215v-5.56c10.563 0 15.984 3.058 21.127 5.977s9.312 5.143 18.347 5.143 13.621-2.5 18.347-5.143 10.563-5.977 21.127-5.977 15.984 3.058 21.127 5.977 9.312 5.143 18.347 5.143 13.621-2.5 18.347-5.143 10.563-5.977 21.127-5.977 15.984 3.058 21.127 5.977 9.312 5.143 18.347 5.143 13.621-2.5 18.347-5.143 10.563-5.977 21.127-5.977 15.984 3.058 21.127 5.977 9.312 5.143 18.347 5.143 13.621-2.5 18.347-5.143 10.563-5.977 21.127-5.977 15.984 3.058 21.127 5.977 9.312 5.143 18.347 5.143zm0-21.961c-10.563 0-15.984-3.058-21.127-5.977s-9.312-5.135-18.347-5.135S302.722 8.061 298 10.7s-10.7 5.977-21.266 5.977-15.987-3.056-21.134-5.977-9.308-5.14-18.342-5.14-13.621 2.5-18.347 5.143-10.7 5.977-21.266 5.977-15.984-3.058-21.127-5.977-9.173-5.143-18.346-5.143-13.621 2.5-18.347 5.143-10.563 5.977-21.266 5.977-15.984-3.059-21.126-5.98-9.174-5.14-18.347-5.14S65.465 8.061 60.6 10.7s-10.424 5.977-21.127 5.977-15.845-3.056-21.126-5.977S9.173 5.56 0 5.56V0c10.563 0 15.984 3.058 21.127 5.977s9.312 5.143 18.347 5.143 13.621-2.5 18.347-5.143S68.384 0 79.086 0s15.984 3.058 21.126 5.977 9.173 5.143 18.347 5.143 13.621-2.5 18.347-5.143S147.469 0 158.172 0s15.845 3.058 21.128 5.977 9.173 5.143 18.347 5.143 13.621-2.5 18.347-5.143S226.555 0 237.258 0s15.984 3.058 21.127 5.977 9.173 5.143 18.347 5.143 13.621-2.5 18.347-5.143S305.641 0 316.343 0s15.845 3.058 21.127 5.977 9.173 5.143 18.347 5.143z"/></svg>